<?xml version="1.0" encoding="utf-8"?>
<!-- Generator: Adobe Illustrator 22.1.0, SVG Export Plug-In . SVG Version: 6.00 Build 0)  -->
<svg version="1.1" id="Capa_1" xmlns="http://www.w3.org/2000/svg" xmlns:xlink="http://www.w3.org/1999/xlink" x="0px" y="0px"
	 viewBox="0 0 80 80" style="enable-background:new 0 0 80 80;" xml:space="preserve">
<style type="text/css">
	.st0{fill:#171343;}
</style>
<g>
	<g>
		<path id="a_1_" class="st0" d="M80,36c0,4.8-3.4,8.9-8,9.8V56c0,13.2-10.8,24-24,24c-13.2,0-24-10.8-24-24V44h4v12
			c0,11,9,20,20,20s20-9,20-20V45.8c-4.6-0.9-8-5-8-9.8c0-5.5,4.5-10,10-10S80,30.5,80,36z M70,42c3.3,0,6-2.7,6-6s-2.7-6-6-6
			s-6,2.7-6,6S66.7,42,70,42z M52,14c0,14.3-11.7,26-26,26S0,28.3,0,14V2c0-1.1,0.9-2,2-2h10v4H4v10c0,12.1,9.9,22,22,22
			s22-9.9,22-22V4h-8V0h10c1.1,0,2,0.9,2,2V14z"/>
	</g>
</g>
</svg>
