<?xml version="1.0" encoding="utf-8"?>
<!-- Generator: Adobe Illustrator 22.1.0, SVG Export Plug-In . SVG Version: 6.00 Build 0)  -->
<svg version="1.1" id="Capa_1" xmlns="http://www.w3.org/2000/svg" xmlns:xlink="http://www.w3.org/1999/xlink" x="0px" y="0px"
	 viewBox="0 0 80 80" style="enable-background:new 0 0 80 80;" xml:space="preserve">
<style type="text/css">
	.st0{fill:#171343;}
</style>
<g>
	<path class="st0" d="M40,60c-7.8,0-14.9-4.6-18.2-11.6L18.2,50c3.9,8.5,12.5,14,21.8,14c9.4,0,17.9-5.5,21.8-14l-3.6-1.7
		C54.9,55.4,47.8,60,40,60z"/>
	<path class="st0" d="M26,32c2.2,0,4,1.8,4,4h4c0-4.4-3.6-8-8-8s-8,3.6-8,8h4C22,33.8,23.8,32,26,32z"/>
	<path class="st0" d="M40,0C17.9,0,0,17.9,0,40c0,22.1,17.9,40,40,40c22.1,0,40-17.9,40-40C80,17.9,62.1,0,40,0z M40,76
		C20.1,76,4,59.9,4,40S20.1,4,40,4s36,16.1,36,36S59.9,76,40,76z"/>
	<path class="st0" d="M54,28L54,28c-4.4,0-8,3.6-8,8h4c0-2.2,1.8-4,4-4c2.2,0,4,1.8,4,4h4C62,31.6,58.4,28,54,28z"/>
</g>
</svg>
