<?xml version="1.0" encoding="utf-8"?>
<!-- Generator: Adobe Illustrator 22.1.0, SVG Export Plug-In . SVG Version: 6.00 Build 0)  -->
<svg version="1.1" id="Capa_1" xmlns="http://www.w3.org/2000/svg" xmlns:xlink="http://www.w3.org/1999/xlink" x="0px" y="0px"
	 viewBox="0 0 80 80" style="enable-background:new 0 0 80 80;" xml:space="preserve">
<style type="text/css">
	.st0{fill:#171343;}
</style>
<g>
	<polygon class="st0" points="31.4,52 31.4,52 31.4,52 	"/>
	<path class="st0" d="M31.4,52l0.1,4c0,0,1.2,0.1,2.5,1.3c1.6,1.5,3.4,5,3.4,12.7h4c0-7.3-1.6-12.6-4.7-15.6
		C34.3,52,31.7,52,31.4,52z"/>
	<path class="st0" d="M61.4,22.1c0-5.4-2-8.1-6-8.1c-0.7,0-1.4,0.1-2,0.3V14c0-5.3-2-8-6-8c-0.8,0-1.5,0.1-2.1,0.3
		C45,2.1,43,0,39.4,0c-3.5,0-5.5,2.1-5.9,6.3C32.9,6.1,32.2,6,31.5,6c-4,0-6,2.7-6,8v23.5l-1.2-2.4c0-0.1-0.1-0.1-0.1-0.2
		c-0.4-0.6-0.8-1.3-1.2-2.1c-1.6-3-3.6-6.8-7.4-6.8c-2.9,0-4.2,1.6-4.7,2.5c-1.5,2.6-0.4,6.2,1,8.5c0.6,1.2,7.9,16.3,9.8,23.6
		c0.2,0.7,0.4,1.5,0.6,2.6C23.2,69,25.5,80,35.5,80c10.3,0,11.6,0,11.8,0c0,0,0.1,0,0.1,0c14,0,14-15,14-19.9
		C61.5,49.6,61.4,22.1,61.4,22.1z M57.4,60.2L57.4,60.2c0,7.9-1.2,15.9-10,15.9v0c-0.7,0-3.1,0-11.9,0c-6.3,0-8.1-6.8-9.5-13.7
		c-0.2-1.1-0.4-2-0.6-2.8c-2.1-7.9-9.8-23.7-10.1-24.4c0-0.1-0.1-0.1-0.1-0.2c-1.1-1.8-1.4-3.8-1-4.5c0.1-0.1,0.2-0.4,1.3-0.4
		c1.4,0,2.9,2.7,3.9,4.7c0.5,0.8,0.9,1.6,1.3,2.3l4.9,9.9c0,1.1,0.9,2,2,2c1.1,0,2-0.9,2-2c0-0.3-0.1-0.6-0.2-0.9V14c0-4,1.1-4,2-4
		c0.9,0,2,0,2,4v26h4V8c0-4,1.1-4,2-4c0.9,0,2,0,2,4v32h4V14c0-4,1.1-4,2-4c0.9,0,2,0,2,4v28h4V22c0-4,1.1-4,2-4c0.9,0,2,0,2,4.1
		C57.4,22.1,57.5,49.6,57.4,60.2z"/>
</g>
</svg>
