<?xml version="1.0" encoding="utf-8"?>
<!-- Generator: Adobe Illustrator 22.1.0, SVG Export Plug-In . SVG Version: 6.00 Build 0)  -->
<svg version="1.1" id="Capa_1" xmlns="http://www.w3.org/2000/svg" xmlns:xlink="http://www.w3.org/1999/xlink" x="0px" y="0px"
	 viewBox="0 0 60 54" style="enable-background:new 0 0 60 54;" xml:space="preserve">
<style type="text/css">
	.st0{fill:#171343;}
	.st1{filter:url(#Adobe_OpacityMaskFilter);}
	.st2{fill:#FFFFFF;}
	.st3{mask:url(#mask-2_1_);}
	.st4{fill:#1A1446;}
</style>
<title>icon</title>
<desc>Created with Sketch.</desc>
<g id="DSK-FAQS">
	<g id="Liberty3_Faqs1" transform="translate(-403.000000, -1129.000000)">
		<g id="Salud-Copy" transform="translate(314.000000, 1087.000000)">
			<g id="Elements-_x2F_-Icon-_x2F_-Liberty-_x2F_-Like" transform="translate(89.000000, 39.000000)">
				<g id="Mask">
					<path id="path-1_1_" class="st0" d="M44,40c-0.3,0.3-0.6,0.5-1,0.5c0,0-0.1,0-0.1,0c-0.4,0-0.7-0.1-1-0.4l-4.4-4l2-2.2l3.3,3
						l9-10.3l2.3,2L44,40z M56.4,23.3c1.5-5.5,0-11.5-4.1-15.6C49.3,4.7,45.2,3,41,3h0c-4.3,0-8.3,1.7-11.3,4.7l-1.2,1l-1.2-1
						c-6.3-6.2-16.4-6.2-22.7,0c-6.2,6.2-6.3,16.4,0,22.6l22.7,26.1c0.3,0.3,0.7,0.5,1.1,0.5s0.8-0.2,1.1-0.5l6-6.9l-2.3-2l-4.9,5.6
						L6.9,28.3c0,0,0-0.1-0.1-0.1c-5.1-5.1-5.1-13.4,0-18.4c5.1-5.1,13.4-5.1,18.4,0c0,0,0,0,0.1,0.1l2.2,1.9c0.6,0.5,1.4,0.5,2,0
						l2.2-1.9c0,0,0,0,0.1-0.1C34.2,7.4,37.5,6,41,6c3.5,0,6.8,1.4,9.2,3.8c2.9,2.9,4.3,7.1,3.7,11.1C51.4,19.1,48.3,18,45,18
						c-8.3,0-15,6.7-15,15c0,8.3,6.7,15,15,15c8.3,0,15-6.7,15-15C60,29.3,58.6,25.9,56.4,23.3z"/>
				</g>
				<defs>
					<filter id="Adobe_OpacityMaskFilter" filterUnits="userSpaceOnUse" x="0" y="0" width="60" height="60">
						<feColorMatrix  type="matrix" values="1 0 0 0 0  0 1 0 0 0  0 0 1 0 0  0 0 0 1 0"/>
					</filter>
				</defs>
				<mask maskUnits="userSpaceOnUse" x="0" y="0" width="60" height="60" id="mask-2_1_">
					<g class="st1">
						<path id="path-1_2_" class="st2" d="M44,40c-0.3,0.3-0.6,0.5-1,0.5c0,0-0.1,0-0.1,0c-0.4,0-0.7-0.1-1-0.4l-4.4-4l2-2.2l3.3,3
							l9-10.3l2.3,2L44,40z M56.4,23.3c1.5-5.5,0-11.5-4.1-15.6C49.3,4.7,45.2,3,41,3h0c-4.3,0-8.3,1.7-11.3,4.7l-1.2,1l-1.2-1
							c-6.3-6.2-16.4-6.2-22.7,0c-6.2,6.2-6.3,16.4,0,22.6l22.7,26.1c0.3,0.3,0.7,0.5,1.1,0.5s0.8-0.2,1.1-0.5l6-6.9l-2.3-2
							l-4.9,5.6L6.9,28.3c0,0,0-0.1-0.1-0.1c-5.1-5.1-5.1-13.4,0-18.4c5.1-5.1,13.4-5.1,18.4,0c0,0,0,0,0.1,0.1l2.2,1.9
							c0.6,0.5,1.4,0.5,2,0l2.2-1.9c0,0,0,0,0.1-0.1C34.2,7.4,37.5,6,41,6c3.5,0,6.8,1.4,9.2,3.8c2.9,2.9,4.3,7.1,3.7,11.1
							C51.4,19.1,48.3,18,45,18c-8.3,0-15,6.7-15,15c0,8.3,6.7,15,15,15c8.3,0,15-6.7,15-15C60,29.3,58.6,25.9,56.4,23.3z"/>
					</g>
				</mask>
				<g id="Elements-_x2F_-Color-_x2F_-Secundario-_x2F_-Blue-1" class="st3">
					<rect id="Rectangle" y="0" class="st4" width="60" height="60"/>
				</g>
			</g>
		</g>
	</g>
</g>
</svg>
