<?xml version="1.0" encoding="utf-8"?>
<!-- Generator: Adobe Illustrator 22.1.0, SVG Export Plug-In . SVG Version: 6.00 Build 0)  -->
<svg version="1.1" id="Capa_1" xmlns="http://www.w3.org/2000/svg" xmlns:xlink="http://www.w3.org/1999/xlink" x="0px" y="0px"
	 viewBox="0 0 60 48" style="enable-background:new 0 0 60 48;" xml:space="preserve">
<style type="text/css">
	.st0{fill:#171343;}
	.st1{filter:url(#Adobe_OpacityMaskFilter);}
	.st2{fill:#FFFFFF;}
	.st3{mask:url(#mask-2_1_);}
	.st4{fill:#1A1446;}
</style>
<title>icon</title>
<desc>Created with Sketch.</desc>
<g id="DSK-FAQS">
	<g id="Liberty3_Faqs1" transform="translate(-659.000000, -879.000000)">
		<g id="Hogar" transform="translate(570.000000, 834.000000)">
			<g id="Elements-_x2F_-Icon-_x2F_-Liberty-_x2F_-Home" transform="translate(89.000000, 39.000000)">
				<g id="Mask">
					<path id="path-1_1_" class="st0" d="M42.8,29.6l-3.4-3.4v26.4c0,0.8-0.7,1.5-1.5,1.5h-12c-0.8,0-1.5-0.7-1.5-1.5V45h-4.5v-3h6
						c0.8,0,1.5,0.7,1.5,1.5V51h9V23.1L22.8,9.6L9.3,23.1V51h10.5v3h-12c-0.8,0-1.5-0.7-1.5-1.5V26.1l-3.4,3.4l-2.1-2.1l21-21
						c0.6-0.6,1.5-0.6,2.1,0l12.4,12.4V12h-4.5V9h6c0.8,0,1.5,0.7,1.5,1.5v11.4l5.6,5.6L42.8,29.6z M51,45c5,0,9,4,9,9h-3
						c0-3.3-2.7-6-6-6c-3.3,0-6,2.7-6,6h-3c0-2.5,1-4.7,2.6-6.3c-0.7-1.6-2.3-2.7-4.1-2.7v-3c2.8,0,5.3,1.5,6.6,3.9
						C48.3,45.3,49.6,45,51,45z M15,33v-6h3v6H15z M27,33v-6h3v6H27z"/>
				</g>
				<defs>
					<filter id="Adobe_OpacityMaskFilter" filterUnits="userSpaceOnUse" x="0" y="0" width="60" height="60">
						<feColorMatrix  type="matrix" values="1 0 0 0 0  0 1 0 0 0  0 0 1 0 0  0 0 0 1 0"/>
					</filter>
				</defs>
				<mask maskUnits="userSpaceOnUse" x="0" y="0" width="60" height="60" id="mask-2_1_">
					<g class="st1">
						<path id="path-1_2_" class="st2" d="M42.8,29.6l-3.4-3.4v26.4c0,0.8-0.7,1.5-1.5,1.5h-12c-0.8,0-1.5-0.7-1.5-1.5V45h-4.5v-3h6
							c0.8,0,1.5,0.7,1.5,1.5V51h9V23.1L22.8,9.6L9.3,23.1V51h10.5v3h-12c-0.8,0-1.5-0.7-1.5-1.5V26.1l-3.4,3.4l-2.1-2.1l21-21
							c0.6-0.6,1.5-0.6,2.1,0l12.4,12.4V12h-4.5V9h6c0.8,0,1.5,0.7,1.5,1.5v11.4l5.6,5.6L42.8,29.6z M51,45c5,0,9,4,9,9h-3
							c0-3.3-2.7-6-6-6c-3.3,0-6,2.7-6,6h-3c0-2.5,1-4.7,2.6-6.3c-0.7-1.6-2.3-2.7-4.1-2.7v-3c2.8,0,5.3,1.5,6.6,3.9
							C48.3,45.3,49.6,45,51,45z M15,33v-6h3v6H15z M27,33v-6h3v6H27z"/>
					</g>
				</mask>
				<g id="Elements-_x2F_-Color-_x2F_-Secundario-_x2F_-Blue-1" class="st3">
					<rect id="Rectangle" y="0" class="st4" width="60" height="60"/>
				</g>
			</g>
		</g>
	</g>
</g>
</svg>
