<?xml version="1.0" encoding="utf-8"?>
<!-- Generator: Adobe Illustrator 22.1.0, SVG Export Plug-In . SVG Version: 6.00 Build 0)  -->
<svg version="1.1" id="Capa_1" xmlns="http://www.w3.org/2000/svg" xmlns:xlink="http://www.w3.org/1999/xlink" x="0px" y="0px"
	 viewBox="0 0 54 60" style="enable-background:new 0 0 54 60;" xml:space="preserve">
<style type="text/css">
	.st0{fill:#171343;}
	.st1{filter:url(#Adobe_OpacityMaskFilter);}
	.st2{fill:#FFFFFF;}
	.st3{mask:url(#mask-2_1_);}
	.st4{fill:#1A1446;}
</style>
<title>icon</title>
<desc>Created with Sketch.</desc>
<g id="DSK-FAQS">
	<g id="Liberty3_Faqs1" transform="translate(-662.000000, -1126.000000)">
		<g id="Salud-Copy-2" transform="translate(570.000000, 1087.000000)">
			<g id="Elements-_x2F_-Icon-_x2F_-Liberty-_x2F_-Shield" transform="translate(89.000000, 39.000000)">
				<g id="Mask">
					<path id="path-1_1_" class="st0" d="M56.6,15.4c-0.3-0.3-0.7-0.5-1.1-0.5c-2.7,0-4.4-5.2-4.8-7C49.8,2.6,39.7,0.1,30,0
						c0,0,0,0,0,0C20.3,0.1,10.2,2.6,9.3,7.9c-0.5,2.3-2.3,7-4.8,7c-0.4,0-0.8,0.2-1.1,0.5C3.1,15.7,3,16.1,3,16.5
						c0,0.1,0.4,6.5,1.5,13.6c1.4,8.6,3.2,14.5,5.5,17.7l2.2-2.2c-3.7-5.7-5.5-20.8-6-28c4.3-1.4,6-8.3,6.2-9.2c0,0,0-0.1,0-0.1
						C12.6,6,19.2,3.4,28.5,3v11.8h3V3c9.3,0.3,15.9,3,16.2,5.4c0,0,0,0.1,0,0.1c0.2,0.9,1.8,7.8,6.2,9.2c-0.6,7.8-2.7,24.9-7,29.2
						c-6.8,6.8-12.7,9-15.4,9.7v-38h-3v38c-2.6-0.7-8-2.7-14.4-8.7L12,50c9.1,8.6,16.5,9.7,17.7,9.9c0.1,0,0.2,0,0.2,0h0
						c0.1,0,0.2,0,0.2,0c1.3-0.1,9.3-1.4,18.8-10.9c2.7-2.7,4.9-9.1,6.4-18.8c1.1-7.1,1.5-13.6,1.5-13.6
						C57,16.1,56.9,15.7,56.6,15.4"/>
				</g>
				<defs>
					<filter id="Adobe_OpacityMaskFilter" filterUnits="userSpaceOnUse" x="0" y="0" width="60" height="60">
						<feColorMatrix  type="matrix" values="1 0 0 0 0  0 1 0 0 0  0 0 1 0 0  0 0 0 1 0"/>
					</filter>
				</defs>
				<mask maskUnits="userSpaceOnUse" x="0" y="0" width="60" height="60" id="mask-2_1_">
					<g class="st1">
						<path id="path-1_2_" class="st2" d="M56.6,15.4c-0.3-0.3-0.7-0.5-1.1-0.5c-2.7,0-4.4-5.2-4.8-7C49.8,2.6,39.7,0.1,30,0
							c0,0,0,0,0,0C20.3,0.1,10.2,2.6,9.3,7.9c-0.5,2.3-2.3,7-4.8,7c-0.4,0-0.8,0.2-1.1,0.5C3.1,15.7,3,16.1,3,16.5
							c0,0.1,0.4,6.5,1.5,13.6c1.4,8.6,3.2,14.5,5.5,17.7l2.2-2.2c-3.7-5.7-5.5-20.8-6-28c4.3-1.4,6-8.3,6.2-9.2c0,0,0-0.1,0-0.1
							C12.6,6,19.2,3.4,28.5,3v11.8h3V3c9.3,0.3,15.9,3,16.2,5.4c0,0,0,0.1,0,0.1c0.2,0.9,1.8,7.8,6.2,9.2c-0.6,7.8-2.7,24.9-7,29.2
							c-6.8,6.8-12.7,9-15.4,9.7v-38h-3v38c-2.6-0.7-8-2.7-14.4-8.7L12,50c9.1,8.6,16.5,9.7,17.7,9.9c0.1,0,0.2,0,0.2,0h0
							c0.1,0,0.2,0,0.2,0c1.3-0.1,9.3-1.4,18.8-10.9c2.7-2.7,4.9-9.1,6.4-18.8c1.1-7.1,1.5-13.6,1.5-13.6
							C57,16.1,56.9,15.7,56.6,15.4"/>
					</g>
				</mask>
				<g id="Elements-_x2F_-Color-_x2F_-Secundario-_x2F_-Blue-1" class="st3">
					<rect id="Rectangle" y="0" class="st4" width="60" height="60"/>
				</g>
			</g>
		</g>
	</g>
</g>
</svg>
