<?xml version="1.0" encoding="UTF-8"?>
<svg width="40px" height="27px" viewBox="0 0 40 27" version="1.1" xmlns="http://www.w3.org/2000/svg" xmlns:xlink="http://www.w3.org/1999/xlink">
    <!-- Generator: Sketch 57.1 (83088) - https://sketch.com -->
    <title>Group 3</title>
    <desc>Created with Sketch.</desc>
    <defs>
        <path d="M34.7012663,4.23923424 C35.2922123,4.23923424 35.7731286,4.72015058 35.7731286,5.31109662 L35.7731286,5.31109662 L35.7731286,8.08409236 L38.9281376,8.08409236 C39.5190837,8.08409236 40,8.56377241 40,9.15471845 L40,9.15471845 L40,24.4105221 C40,25.0014681 39.5190837,25.4823844 38.9281376,25.4823844 L38.9281376,25.4823844 L9.47726619,25.4823844 C8.88632016,25.4823844 8.40540382,25.0014681 8.40540382,24.4105221 L8.40540382,24.4105221 L8.40540382,21.1368294 L5.7510918,21.1368294 C5.16014576,21.1368294 4.67922942,20.655913 4.67922942,20.064967 L4.67922942,20.064967 L4.67922942,17.7976133 L6.82295417,17.7976133 L6.82295417,18.9931046 L33.6294039,18.9931046 L33.6294039,6.38172271 L32.4672924,6.38172271 L32.4672924,4.23923424 Z M37.8562752,10.2265808 L35.7731286,10.2265808 L35.7731286,20.064967 C35.7731286,20.655913 35.2922123,21.1368294 34.7012663,21.1368294 L34.7012663,21.1368294 L10.5491286,21.1368294 L10.5491286,23.3386597 L37.8562752,23.3386597 L37.8562752,10.2265808 Z M29.7896146,-5.68434189e-14 C30.3492413,-5.68434189e-14 30.8097891,0.423239344 30.8687082,0.967168314 L30.8750761,1.08546155 L30.8750761,15.1148667 C30.8750761,15.6744934 30.4518368,16.1350412 29.9079078,16.1939603 L29.7896146,16.2003282 L1.08422526,16.2003282 C0.525752411,16.2003282 0.0652815424,15.7770889 0.00636752828,15.2331599 L-2.84217094e-14,15.1148667 L-2.84217094e-14,1.08546155 C-2.84217094e-14,0.52583483 0.423239344,0.0652870371 0.966163165,0.00636789459 L1.08422526,-5.68434189e-14 L29.7896146,-5.68434189e-14 Z M28.6497563,2.22531981 L2.22531981,2.22531981 L2.22531981,13.9750084 L28.6497563,13.9750084 L28.6497563,2.22531981 Z M22.775901,3.40906632 L24.1667259,3.4115389 L24.1642533,4.12240495 L25.7528844,4.12611382 L25.7504118,5.5169387 L24.1617808,5.51322984 L24.1580719,7.37384446 C24.766326,7.38249848 25.3374914,7.6223385 25.7677199,8.05380329 C26.2053661,8.49268581 26.4452061,9.07621411 26.4427525,9.69559479 C26.4427525,10.3149755 26.200421,10.8972675 25.7603021,11.3336774 C25.3767779,11.7161028 24.8818961,11.9461441 24.3494609,11.9968845 L24.1481816,12.0074548 L24.145709,13.0385197 L22.7548841,13.0348108 L22.7573567,12.0074548 L21.3059537,12.003746 L21.3084262,10.6129211 L22.7598293,10.6166299 L22.7647744,8.74612501 C22.1923727,8.71521779 21.658296,8.48526807 21.251557,8.07605649 C20.8139107,7.63717397 20.5740707,7.05364566 20.5753022,6.43426498 C20.5765433,5.8148843 20.8188559,5.23259228 21.2577384,4.79618234 C21.621482,4.43353763 22.0848614,4.21643921 22.5844916,4.1500968 L22.7734284,4.13229526 L22.775901,3.40906632 Z M10.0683359,8.9952372 L10.0683359,10.998025 L4.55696046,10.998025 L4.55696046,8.9952372 L10.0683359,8.9952372 Z M24.1555993,8.76466934 L24.1506542,10.6166299 C24.3880216,10.6092122 24.6105536,10.5164905 24.7786889,10.3483553 C24.9554782,10.1740386 25.0519087,9.94037997 25.0519087,9.69312222 C25.053145,9.44462817 24.9567144,9.21096959 24.7823977,9.03541658 C24.6142624,8.86604502 24.3929668,8.77208707 24.1555993,8.76466934 Z M22.767247,7.35530012 L22.7709559,5.52312015 C22.5706771,5.54908221 22.3852338,5.63685871 22.2393517,5.7815045 C22.0637987,5.95582122 21.9661319,6.1894798 21.9661319,6.43797385 C21.9661319,6.6852316 22.0613261,6.91889018 22.2368791,7.09444319 C22.3525957,7.21114885 22.4944228,7.29066695 22.6490677,7.33173152 L22.767247,7.35530012 L22.7709559,5.52312015 Z M17.0694393,4.85490606 L17.0694393,6.85769389 L4.55696046,6.85769389 L4.55696046,4.85490606 L17.0694393,4.85490606 Z" id="path-1"></path>
    </defs>
    <g id="Desktop" stroke="none" stroke-width="1" fill="none" fill-rule="evenodd">
        <g id="2.1" transform="translate(-301.000000, -788.000000)">
            <g id="Group-3" transform="translate(301.000000, 782.000000)">
                <rect id="Rectangle" fill="#99E5EA" x="2" y="8" width="27" height="14"></rect>
                <g id="Icons/Stack-of-checks-">
                    <g id="Color/Liberty-Blue" transform="translate(0.000000, 6.666667)">
                        <mask id="mask-2" fill="white">
                            <use xlink:href="#path-1"></use>
                        </mask>
                        <use id="Mask" fill="#13112B" xlink:href="#path-1"></use>
                        <g mask="url(#mask-2)" fill="#1A1446" id="Rectangle">
                            <g transform="translate(-63.333333, -70.000000)">
                                <rect x="0" y="0" width="167" height="167"></rect>
                            </g>
                        </g>
                    </g>
                </g>
            </g>
        </g>
    </g>
</svg>