<?xml version="1.0" encoding="UTF-8"?>
<svg width="80px" height="32px" viewBox="0 0 80 32" version="1.1" xmlns="http://www.w3.org/2000/svg" xmlns:xlink="http://www.w3.org/1999/xlink">
    <!-- Generator: Sketch 57.1 (83088) - https://sketch.com -->
    <title>Group 73</title>
    <desc>Created with Sketch.</desc>
    <defs>
        <polygon id="path-1" points="0.0813361827 0.251513043 14.8978571 0.251513043 14.8978571 15.9694261 0.0813361827 15.9694261"></polygon>
        <polygon id="path-3" points="0.0607666667 0.2098 2.85076667 0.2098 2.85076667 3 0.0607666667 3"></polygon>
        <polygon id="path-5" points="0 32 80 32 80 0 0 0"></polygon>
    </defs>
    <g id="Desktop" stroke="none" stroke-width="1" fill="none" fill-rule="evenodd">
        <g id="2.1" transform="translate(-623.000000, -787.000000)">
            <g id="Group-73" transform="translate(623.000000, 787.000000)">
                <path d="M60.8638174,23 L51.5301228,23 C51.237495,23 51,22.764443 51,22.4742031 C51,22.1839632 51.237495,21.9484062 51.5301228,21.9484062 L60.8125722,21.9484062 C61.1656339,21.8747946 63.6183352,21.2603133 63.7278939,18.4066382 C63.8367458,15.5764487 62.2007869,15.2932194 61.9353721,15.2655274 L55.9446316,15.2655274 C53.5424687,14.8683755 53.0395589,12.7259284 53.1091817,11.5867017 C53.0961054,8.62541352 55.6159555,7.29970424 56.9532785,7.01191806 C56.9900337,7.00420638 57.0278491,7 57.0656645,7 L65.4698772,7 C65.762505,7 66,7.23555702 66,7.52579691 C66,7.81638734 65.762505,8.05159382 65.4698772,8.05159382 L57.128219,8.05159382 C56.7214382,8.15429949 54.1475155,8.91179757 54.1694272,11.5979187 C54.1694272,11.6108884 54.1690738,11.623858 54.168367,11.6368277 C54.1623589,11.7293679 54.0531536,13.8483295 56.0732747,14.2149852 C56.0732747,14.2149852 61.9905049,14.2135831 61.9862639,14.2149852 C62.0159508,14.2163873 64.9415216,14.4358199 64.787786,18.4465988 C64.6686851,21.5477489 62.2272931,22.7760105 60.9532314,22.9926388 C60.9235445,22.9975463 60.8938576,23 60.8638174,23" id="Fill-1" fill="#181345"></path>
                <g id="Group-5" transform="translate(65.000000, 7.000000)">
                    <mask id="mask-2" fill="white">
                        <use xlink:href="#path-1"></use>
                    </mask>
                    <g id="Clip-4"></g>
                    <path d="M2.65975,3.99864348 C2.59939286,4.26646957 2.24153571,5.86786087 1.88975,7.68594783 L13.3476071,7.59273043 C13.4976071,6.68386087 13.8265357,4.53638261 13.8265357,3.20281739 C13.8265357,1.98264348 12.3211786,1.40768696 11.9865357,1.2949913 L5.81010714,1.2949913 C3.83296429,1.2949913 2.78225,3.70055652 2.65975,3.99864348 M12.2240357,15.9694261 L3.51975,15.9694261 C3.50046429,15.9694261 3.48189286,15.9683826 3.46260714,15.9662957 C2.31510714,15.8466435 0.131535714,15.0689043 0.0826071429,12.9809043 C0.0311785714,10.7617739 1.55725,4.0202087 1.62225,3.73429565 C1.62760714,3.71064348 1.63439286,3.68803478 1.64296429,3.66542609 C1.69617857,3.52629565 2.97617857,0.251513043 5.81010714,0.251513043 L12.0715357,0.251513043 C12.1215357,0.251513043 12.1718929,0.258469565 12.2201071,0.272034783 C12.3293929,0.302991304 14.8979643,1.05046957 14.8979643,3.20281739 C14.8979643,5.01186087 14.3533214,8.0709913 14.3301071,8.20038261 C14.2858214,8.44873043 14.0654643,8.63029565 13.8068929,8.63238261 L1.69296429,8.73116522 C1.38725,10.4083826 1.13403571,12.0897739 1.15403571,12.9572522 C1.19189286,14.5732522 3.27975,14.8911652 3.55225,14.9259478 L12.2240357,14.9259478 C12.51975,14.9259478 12.75975,15.159687 12.75975,15.447687 C12.75975,15.735687 12.51975,15.9694261 12.2240357,15.9694261" id="Fill-3" fill="#181345" mask="url(#mask-2)"></path>
                </g>
                <path d="M39.6235997,20.071708 C40.6139696,22.0361403 42.1423581,22.3288447 42.3678847,22.3616303 L47.2658671,22.2162921 C48.9678624,21.646093 49.5873303,19.7837355 49.6577465,19.5542363 L51.0050649,10.9863779 C51.1458973,10.0315394 49.7411427,9.01011576 49.1632106,9.01450971 C48.8069111,9.01586169 47.6669474,9.01957964 46.5266592,9.02194562 C45.8383976,9.0232976 45.149487,9.0232976 44.6338587,9.02262161 C44.2808041,9.02228361 44.0254237,9.02194562 43.838837,9.00977776 C43.014935,9.15680599 41.5469031,10.5216335 41.0926051,11.7914841 C41.0072619,12.1909953 40.3449602,15.9484959 39.6235997,20.071708 M37.4874252,30 C37.4585448,30 37.42934,29.997296 37.4001351,29.9918881 C37.1356687,29.9418647 36.9601149,29.6782279 37.0078162,29.4027612 C37.0078162,29.4027612 37.7830435,24.9378352 38.5637872,20.4729092 C38.9541591,18.2397702 39.3461534,16.0069692 39.6427452,14.3318614 C39.7913655,13.4939696 39.9156485,12.795332 40.0048856,12.3059139 C40.0782223,11.9016708 40.1265726,11.636344 40.1817374,11.4616001 L40.1729759,11.4585582 C40.7230011,9.89296109 42.4357049,8.21548737 43.6973556,8.00660589 C43.7418119,7.99916998 43.7862682,7.99849399 43.8294265,8.00356393 C44.1513292,8.01505579 47.2369867,8.00795787 49.2738646,8.00009122 L49.2754871,8.00009122 C49.7476326,7.9890301 52.2699605,8.98375208 51.9762893,11.0641169 C51.9740178,11.0823687 51.9736933,11.1009585 51.9707728,11.1192103 L50.6130705,19.7516259 C50.61015,19.7702157 50.606256,19.7888054 50.6013886,19.8070572 C50.5718592,19.9152159 49.8586112,22.4650571 47.4858772,23.2062821 C47.4453148,23.219464 47.40313,23.2265619 47.3602962,23.2275759 L42.3591232,23.3762941 C42.3386798,23.3779841 42.3192099,23.3766321 42.29974,23.3742661 C42.2205623,23.3668302 40.6405785,23.1914103 39.3701663,21.5223865 C38.8314986,24.6042332 38.2934798,27.6955439 37.9657362,29.583251 C37.9232269,29.8282981 37.7181438,30 37.4874252,30" id="Fill-6" fill="#181345"></path>
                <path d="M30,5.5 C30,6.32831541 29.3283154,7 28.5,7 C27.6716846,7 27,6.32831541 27,5.5 C27,4.67132616 27.6716846,4 28.5,4 C29.3283154,4 30,4.67132616 30,5.5" id="Fill-8" fill="#181345"></path>
                <path d="M27,1.5 C27,2.32831541 26.3283154,3 25.5,3 C24.6716846,3 24,2.32831541 24,1.5 C24,0.671326165 24.6716846,0 25.5,0 C26.3283154,0 27,0.671326165 27,1.5" id="Fill-10" fill="#181345"></path>
                <path d="M24,5.5 C24,6.32831541 23.3283154,7 22.5,7 C21.6713262,7 21,6.32831541 21,5.5 C21,4.67132616 21.6713262,4 22.5,4 C23.3283154,4 24,4.67132616 24,5.5" id="Fill-12" fill="#181345"></path>
                <path d="M30,26.5 C30,27.3286738 29.3283154,28 28.5,28 C27.6716846,28 27,27.3286738 27,26.5 C27,25.6713262 27.6716846,25 28.5,25 C29.3283154,25 30,25.6713262 30,26.5" id="Fill-14" fill="#181345"></path>
                <path d="M27,20.5001792 C27,21.3283957 26.3283154,22 25.5,22 C24.6716846,22 24,21.3283957 24,20.5001792 C24,19.6716043 24.6716846,19 25.5,19 C26.3283154,19 27,19.6716043 27,20.5001792" id="Fill-16" fill="#181345"></path>
                <path d="M20,21.0001445 C20,21.5523768 19.5523768,22 19.0001445,22 C18.4476232,22 18,21.5523768 18,21.0001445 C18,20.4479122 18.4476232,20 19.0001445,20 C19.5523768,20 20,20.4479122 20,21.0001445" id="Fill-18" fill="#181345"></path>
                <path d="M23,26 C23,26.5521526 22.5523768,27 22.0001445,27 C21.4476232,27 21,26.5521526 21,26 C21,25.4478474 21.4476232,25 22.0001445,25 C22.5523768,25 23,25.4478474 23,26" id="Fill-20" fill="#181345"></path>
                <path d="M20,30.0001445 C20,30.5523768 19.5523768,31 18.9998555,31 C18.4476232,31 18,30.5523768 18,30.0001445 C18,29.4476232 18.4476232,29 18.9998555,29 C19.5523768,29 20,29.4476232 20,30.0001445" id="Fill-22" fill="#181345"></path>
                <path d="M17,26 C17,26.551827 16.5521999,27 16,27 C15.4478001,27 15,26.551827 15,26 C15,25.4478001 15.4478001,25 16,25 C16.5521999,25 17,25.4478001 17,26" id="Fill-24" fill="#181345"></path>
                <path d="M6,16 C6,16.5521999 5.55211635,17 4.99981354,17 C4.44751072,17 4,16.5521999 4,16 C4,15.4478001 4.44751072,15 4.99981354,15 C5.55211635,15 6,15.4478001 6,16" id="Fill-26" fill="#181345"></path>
                <path d="M7,11 C7,11.5521999 6.55248928,12 5.99981354,12 C5.44751072,12 5,11.5521999 5,11 C5,10.4478001 5.44751072,10 5.99981354,10 C6.55248928,10 7,10.4478001 7,11" id="Fill-28" fill="#181345"></path>
                <path d="M11,5 C11,5.55219985 10.5521164,6 9.99981354,6 C9.44751072,6 9,5.55219985 9,5 C9,4.44780015 9.44751072,4 9.99981354,4 C10.5521164,4 11,4.44780015 11,5" id="Fill-30" fill="#181345"></path>
                <path d="M14,2 C14,2.55219985 13.5521164,3 12.9998135,3 C12.4475107,3 12,2.55219985 12,2 C12,1.44780015 12.4475107,1 12.9998135,1 C13.5521164,1 14,1.44780015 14,2" id="Fill-32" fill="#181345"></path>
                <path d="M15,30 C15,30.551827 14.5521999,31 14,31 C13.4478001,31 13,30.551827 13,30 C13,29.4478001 13.4478001,29 14,29 C14.5521999,29 15,29.4478001 15,30" id="Fill-34" fill="#181345"></path>
                <path d="M11,26 C11,26.551827 10.5521164,27 9.99981354,27 C9.44751072,27 9,26.551827 9,26 C9,25.4478001 9.44751072,25 9.99981354,25 C10.5521164,25 11,25.4478001 11,26" id="Fill-36" fill="#181345"></path>
                <path d="M7,21 C7,21.551827 6.55219985,22 6,22 C5.44780015,22 5,21.551827 5,21 C5,20.4478001 5.44780015,20 6,20 C6.55219985,20 7,20.4478001 7,21" id="Fill-38" fill="#181345"></path>
                <path d="M5,26.5 C5,26.7760116 4.77629201,27 4.5001807,27 C4.22406939,27 4,26.7760116 4,26.5 C4,26.2236272 4.22406939,26 4.5001807,26 C4.77629201,26 5,26.2236272 5,26.5" id="Fill-40" fill="#181345"></path>
                <path d="M3,20.5001807 C3,20.776292 2.77629201,21 2.5001807,21 C2.22406939,21 2,20.776292 2,20.5001807 C2,20.223708 2.22406939,20 2.5001807,20 C2.77629201,20 3,20.223708 3,20.5001807" id="Fill-42" fill="#181345"></path>
                <path d="M1,16.5001807 C1,16.776292 0.775930611,17 0.499819299,17 C0.223707987,17 0,16.776292 0,16.5001807 C0,16.2240694 0.223707987,16 0.499819299,16 C0.775930611,16 1,16.2240694 1,16.5001807" id="Fill-44" fill="#181345"></path>
                <path d="M3,11.4998193 C3,11.7759306 2.77593061,12 2.4998193,12 C2.22370799,12 2,11.7759306 2,11.4998193 C2,11.223708 2.22370799,11 2.4998193,11 C2.77593061,11 3,11.223708 3,11.4998193" id="Fill-46" fill="#181345"></path>
                <path d="M5,5.4998193 C5,5.77593061 4.77629201,6 4.5001807,6 C4.22406939,6 4,5.77593061 4,5.4998193 C4,5.22370799 4.22406939,5 4.5001807,5 C4.77629201,5 5,5.22370799 5,5.4998193" id="Fill-48" fill="#181345"></path>
                <path d="M14,21.0001445 C14,21.5523768 13.5523768,22 13.0001445,22 C12.4476232,22 12,21.5523768 12,21.0001445 C12,20.4479122 12.4476232,20 13.0001445,20 C13.5523768,20 14,20.4479122 14,21.0001445" id="Fill-50" fill="#181345"></path>
                <path d="M11,15.9998555 C11,16.5520878 10.5523768,17 9.99985551,17 C9.44762318,17 9,16.5520878 9,15.9998555 C9,15.4476232 9.44762318,15 9.99985551,15 C10.5523768,15 11,15.4476232 11,15.9998555" id="Fill-52" fill="#181345"></path>
                <path d="M14,11 C14,11.5523121 13.5523768,12 13.0001445,12 C12.4476232,12 12,11.5523121 12,11 C12,10.4476879 12.4476232,10 13.0001445,10 C13.5523768,10 14,10.4476879 14,11" id="Fill-54" fill="#181345"></path>
                <path d="M17,5 C17,5.55231214 16.5523768,6 16.0001445,6 C15.4476232,6 15,5.55231214 15,5 C15,4.44768786 15.4476232,4 16.0001445,4 C16.5523768,4 17,4.44768786 17,5" id="Fill-56" fill="#181345"></path>
                <path d="M20,0.999855512 C20,1.55208785 19.5523768,2 18.9998555,2 C18.4476232,2 18,1.55208785 18,0.999855512 C18,0.447623176 18.4476232,0 18.9998555,0 C19.5523768,0 20,0.447623176 20,0.999855512" id="Fill-58" fill="#181345"></path>
                <path d="M17,16.5 C17,17.3286738 16.3283154,18 15.5,18 C14.6716846,18 14,17.3286738 14,16.5 C14,15.6716846 14.6716846,15 15.5,15 C16.3283154,15 17,15.6716846 17,16.5" id="Fill-60" fill="#181345"></path>
                <path d="M20,11.5 C20,12.3283154 19.3283154,13 18.5,13 C17.6716846,13 17,12.3283154 17,11.5 C17,10.6716846 17.6716846,10 18.5,10 C19.3283154,10 20,10.6716846 20,11.5" id="Fill-62" fill="#181345"></path>
                <g id="Group-66" transform="translate(24.000000, 29.000000)">
                    <mask id="mask-4" fill="white">
                        <use xlink:href="#path-3"></use>
                    </mask>
                    <g id="Clip-65"></g>
                    <path d="M2.85076667,1.60513333 C2.85076667,2.37546667 2.2261,3.00013333 1.45576667,3.00013333 C0.685433333,3.00013333 0.0607666667,2.37546667 0.0607666667,1.60513333 C0.0607666667,0.834466667 0.685433333,0.2098 1.45576667,0.2098 C2.2261,0.2098 2.85076667,0.834466667 2.85076667,1.60513333" id="Fill-64" fill="#181345" mask="url(#mask-4)"></path>
                </g>
                <mask id="mask-6" fill="white">
                    <use xlink:href="#path-5"></use>
                </mask>
                <g id="Clip-68"></g>
                <polygon id="Fill-67" fill="#181345" mask="url(#mask-6)" points="17 17 37 17 37 16 17 16"></polygon>
                <polygon id="Fill-69" fill="#181345" mask="url(#mask-6)" points="20 12 26 12 26 11 20 11"></polygon>
                <polygon id="Fill-70" fill="#181345" mask="url(#mask-6)" points="29.9085869 16 26 11 27.0910484 11 31 16"></polygon>
                <polygon id="Fill-71" fill="#181345" mask="url(#mask-6)" points="27 21 30 21 30 20 27 20"></polygon>
                <polygon id="Fill-72" fill="#181345" mask="url(#mask-6)" points="29 21 32.1038938 16 33 16 29.8961062 21"></polygon>
            </g>
        </g>
    </g>
</svg>