<?xml version="1.0" encoding="utf-8"?>
<!-- Generator: Adobe Illustrator 22.1.0, SVG Export Plug-In . SVG Version: 6.00 Build 0)  -->
<svg version="1.1" id="Capa_1" xmlns="http://www.w3.org/2000/svg" xmlns:xlink="http://www.w3.org/1999/xlink" x="0px" y="0px"
	 viewBox="0 0 42 54" style="enable-background:new 0 0 42 54;" xml:space="preserve">
<style type="text/css">
	.st0{fill:#171343;}
</style>
<title>icon</title>
<desc>Created with Sketch.</desc>
<g id="DSK-FAQS">
	<g id="Liberty3_Faqs1" transform="translate(-924.000000, -1129.000000)">
		<g id="Salud-Copy-3" transform="translate(826.000000, 1087.000000)">
			<g>
				<path class="st0" d="M115,53.3c-1.4,0-2.6,1.2-2.6,2.6h5.2C117.7,54.4,116.5,53.3,115,53.3z"/>
				<path class="st0" d="M122.9,53.3c-1.4,0-2.6,1.2-2.6,2.6h5.2C125.5,54.4,124.4,53.3,122.9,53.3z"/>
				<path class="st0" d="M119,74.3c-11.6,0-21,9.4-21,21h2.6c0-7.7,4.8-14.3,11.5-17l4.1,4.1c0.7,0.7,1.7,1.2,2.8,1.2
					c1.1,0,2-0.4,2.8-1.2l4.1-4.1c6.7,2.7,11.5,9.3,11.5,17h2.6C139.9,83.7,130.5,74.3,119,74.3z M119.9,80.4
					c-0.5,0.5-1.3,0.5-1.9,0l-3.1-3.1c1.3-0.3,2.6-0.4,4-0.4c1.4,0,2.7,0.2,4,0.4L119.9,80.4z"/>
				<path class="st0" d="M105.8,61.1h1.1c2,4.6,6.7,7.9,12,7.9c5.4,0,10-3.2,12-7.9h1.1c1.4,0,2.6-1.2,2.6-2.6v-5.2
					c0-1.4-1.2-2.6-2.6-2.6H131c-2-4.6-6.7-7.9-12-7.9c-5.4,0-10,3.2-12,7.9h-1.1c-1.4,0-2.6,1.2-2.6,2.6v5.2
					C103.2,60,104.4,61.1,105.8,61.1z M119,45.4c5.8,0,10.5,4.7,10.5,10.5c0,0.6-0.1,1.2-0.2,1.7l-8.3,3.7c-0.7,0.3-1,1.1-0.7,1.7
					c0.2,0.5,0.7,0.8,1.2,0.8c0.2,0,0.4,0,0.5-0.1l6-2.7c-1.8,3.2-5.2,5.4-9.2,5.4c-5.8,0-10.5-4.7-10.5-10.5
					C108.5,50.1,113.2,45.4,119,45.4z"/>
			</g>
		</g>
	</g>
</g>
</svg>
