<?xml version="1.0" encoding="utf-8"?>
<!-- Generator: Adobe Illustrator 22.1.0, SVG Export Plug-In . SVG Version: 6.00 Build 0)  -->
<svg version="1.1" id="Capa_1" xmlns="http://www.w3.org/2000/svg" xmlns:xlink="http://www.w3.org/1999/xlink" x="0px" y="0px"
	 viewBox="0 0 54 42" style="enable-background:new 0 0 54 42;" xml:space="preserve">
<style type="text/css">
	.st0{fill:#171343;}
</style>
<title>icon</title>
<desc>Created with Sketch.</desc>
<g id="DSK-FAQS">
	<g id="Liberty3_Faqs1" transform="translate(-407.000000, -882.000000)">
		<g id="autos" transform="translate(315.000000, 834.000000)">
			<g id="Elements-_x2F_-Icon-_x2F_-Liberty-_x2F_-Car-1" transform="translate(89.000000, 39.000000)">
				<g>
					<rect x="13.1" y="40.1" class="st0" width="34.2" height="3"/>
					<path class="st0" d="M53.9,16h-5.1l-1-2.9C47,11.1,45.1,9.8,43,9.8H30.3H17.5c-2.2,0-4,1.3-4.8,3.4l-1,2.9H6.6
						c-1.6,0-2.9,1.3-2.9,2.9v2.6c0,1.6,1.3,2.9,2.9,2.9h1.6l-1.6,2c-0.2,0.3-0.3,0.6-0.3,0.9v20.1c0,1.6,1.3,2.9,2.9,2.9h6.2
						c1.6,0,2.9-1.3,2.9-2.9v-2.2h-3v2.1H9.3V36.9h7.2c1.2,0,2.3-0.8,2.6-2l0.8-2.3c0-0.1,0-0.1,0-0.2c0.2-0.9,0-1.9-0.6-2.7
						c-0.6-0.8-1.5-1.2-2.5-1.2H9.3v-0.7l2.1-2.6h37.8l2.1,2.6v0.7h-7.5c-1,0-1.9,0.4-2.5,1.2c-0.6,0.8-0.8,1.7-0.6,2.7
						c0,0.1,0,0.1,0,0.2l0.8,2.3c0.3,1.2,1.4,2,2.6,2h7.2l0,10.4h-5.9v-2.1h-3v2.2c0,1.6,1.3,2.9,2.9,2.9h6.2c1.6,0,2.9-1.3,2.9-2.9
						l0-20.1c0-0.3-0.1-0.7-0.3-0.9l-1.6-2h1.6c1.6,0,2.9-1.3,2.9-2.9v-2.6C56.8,17.3,55.5,16,53.9,16z M16.8,31.5
						c0,0,0.1,0,0.1,0.1c0,0,0,0.1,0,0.1l-0.8,2.2H9.3v-2.4H16.8z M9.9,21.4H6.8V19h3.9L9.9,21.4z M12.7,22.2l2.9-8.1
						c0.3-0.9,1-1.4,1.9-1.4h12.7H43c0.9,0,1.6,0.5,1.9,1.4l2.9,8.1H12.7z M44.3,33.9l-0.8-2.2c0,0,0-0.1,0-0.1
						c0-0.1,0.1-0.1,0.1-0.1h7.5l0,2.4H44.3z M53.8,21.4h-3.1L49.8,19h3.9V21.4z"/>
				</g>
			</g>
		</g>
	</g>
</g>
</svg>
