<?xml version="1.0" encoding="UTF-8"?>
<svg width="14px" height="182px" viewBox="0 0 14 182" version="1.1" xmlns="http://www.w3.org/2000/svg" xmlns:xlink="http://www.w3.org/1999/xlink">
    <!-- Generator: Sketch 52.6 (67491) - http://www.bohemiancoding.com/sketch -->
    <title>Group</title>
    <desc>Created with Sketch.</desc>
    <defs>
        <path d="M0.00107692308,144.780909 L0.00107692308,89.738226 L1.078,89.738226 L1.078,144.780909 L0.00107692308,144.780909 Z M3.89964615,137.602263 L10.1027231,140.175239 L10.1027231,142.210739 L3.89964615,144.780477 L3.89964615,142.871251 L8.25364615,141.167087 L3.89964615,139.464001 L3.89964615,137.602263 Z M10.1029385,132.80988 L10.1029385,136.937002 L9.0034,136.937002 L9.0034,135.782185 L4.9994,135.782185 L4.9994,136.937002 L3.89986154,136.937002 L3.89986154,132.80988 L4.9994,132.80988 L4.9994,133.964698 L9.0034,133.964698 L9.0034,132.80988 L10.1029385,132.80988 Z M9.74755385,125.121173 C9.8574,125.437399 9.96401538,125.857234 10.0717077,126.376362 C10.1783231,126.897649 10.2310923,127.416777 10.2310923,127.932667 C10.2310923,129.132813 9.94570769,130.071777 9.37063077,130.750637 C8.79878462,131.429496 8.00616923,131.768387 6.99601538,131.768387 C6.03109231,131.768387 5.25355385,131.427338 4.6634,130.742002 C4.07432308,130.056667 3.77924615,129.101515 3.77924615,127.877624 C3.77924615,127.413539 3.81586154,126.971039 3.88909231,126.551204 C3.96232308,126.131368 4.10770769,125.666204 4.32955385,125.151393 L5.78232308,125.151393 L5.78232308,125.352137 C5.72416923,125.441716 5.64124615,125.572307 5.53463077,125.741752 C5.42801538,125.912277 5.33647692,126.076326 5.26109231,126.234978 C5.17278462,126.416295 5.09524615,126.62999 5.03386154,126.876063 C4.96709231,127.122137 4.93693846,127.380082 4.93693846,127.654216 C4.93693846,127.976917 4.97786154,128.269399 5.06186154,128.530582 C5.14586154,128.791765 5.27293846,129.028124 5.44524615,129.235344 C5.61324615,129.433929 5.82432308,129.590423 6.08063077,129.705905 C6.33693846,129.821387 6.63524615,129.879667 6.96909231,129.879667 C7.65724615,129.879667 8.18278462,129.673527 8.54678462,129.259088 C8.90863077,128.845728 9.09170769,128.235941 9.09170769,127.42757 C9.09170769,127.359576 9.08955385,127.280789 9.08524615,127.197685 C9.08524615,127.114582 9.08093846,127.036874 9.07447692,126.96888 L7.85647692,126.96888 L7.85647692,128.373009 L6.68693846,128.373009 L6.68693846,125.121173 L9.74755385,125.121173 Z M10.1029385,119.712204 L10.1029385,123.839326 L9.0034,123.839326 L9.0034,122.684509 L4.9994,122.684509 L4.9994,123.839326 L3.89986154,123.839326 L3.89986154,119.712204 L4.9994,119.712204 L4.9994,120.867021 L9.0034,120.867021 L9.0034,119.712204 L10.1029385,119.712204 Z M10.1029385,113.17227 L10.1029385,118.259941 L3.89986154,118.259941 L3.89986154,116.442453 L8.90432308,116.442453 L8.90432308,113.17227 L10.1029385,113.17227 Z M10.1032615,105.595915 L10.1032615,107.474921 L8.84756923,107.963829 L8.84756923,110.572421 L10.1032615,111.064567 L10.1032615,112.893927 L3.89910769,110.291811 L3.89910769,108.200189 L10.1032615,105.595915 Z M7.71141538,108.402012 L5.48864615,109.269744 L7.71141538,110.134238 L7.71141538,108.402012 Z M7.00656923,97.953184 C7.58487692,97.953184 8.10287692,98.099965 8.55949231,98.400001 C9.01503077,98.701117 9.36718462,99.08102 9.61272308,99.538629 C9.79364615,99.880757 9.92395385,100.258501 9.99610769,100.667544 C10.0671846,101.077666 10.1027231,101.564416 10.1027231,102.127794 L10.1027231,104.610111 L3.89964615,104.610111 L3.89964615,102.055483 C3.89964615,101.481312 3.94164615,100.984849 4.02672308,100.568251 C4.10964615,100.152733 4.23133846,99.801971 4.38641538,99.518123 C4.64810769,99.032452 4.99918462,98.648233 5.44287692,98.369782 C5.88656923,98.09133 6.4078,97.953184 7.00656923,97.953184 Z M6.9958,99.831111 C6.58656923,99.831111 6.23764615,99.915294 5.9458,100.08258 C5.65826154,100.252026 5.42995385,100.520763 5.26626154,100.885556 C5.18441538,101.07227 5.13056923,101.262221 5.10149231,101.456489 C5.07241538,101.650757 5.05841538,101.943239 5.05841538,102.335013 L5.05841538,102.793702 L8.9418,102.793702 L8.9418,102.335013 C8.9418,101.904385 8.92349231,101.583843 8.88903077,101.383099 C8.85349231,101.181276 8.79103077,100.98377 8.70056923,100.79058 C8.53364615,100.459245 8.31072308,100.217489 8.03072308,100.062074 C7.7518,99.907739 7.40610769,99.831111 6.9958,99.831111 Z M7.00258462,89.738657 C7.99335385,89.738657 8.77735385,90.0592 9.35889231,90.703523 C9.94258462,91.346767 10.2312,92.237163 10.2312,93.374712 C10.2312,94.509023 9.94258462,95.396182 9.35889231,96.038346 C8.77735385,96.683749 7.99335385,97.004291 7.00258462,97.004291 C6.00535385,97.004291 5.21704615,96.683749 4.63873846,96.038346 C4.05935385,95.396182 3.77073846,94.509023 3.77073846,93.374712 C3.77073846,92.244718 4.05935385,91.35648 4.63873846,90.70892 C5.21704615,90.061359 6.00535385,89.738657 7.00258462,89.738657 Z M8.57381538,92.147584 C8.38643077,91.969505 8.16135385,91.839993 7.90504615,91.75473 C7.64873846,91.669468 7.34504615,91.627377 6.99827692,91.627377 C6.62781538,91.627377 6.3112,91.675944 6.05058462,91.774157 C5.78889231,91.871291 5.57781538,91.998645 5.41627692,92.157298 C5.24935385,92.318109 5.12766154,92.503743 5.05443077,92.7142 C4.97796923,92.923578 4.94135385,93.140511 4.94135385,93.368237 C4.94135385,93.600279 4.97689231,93.816133 5.04904615,94.019035 C5.1212,94.224096 5.24073846,94.40973 5.40766154,94.580255 C5.56381538,94.737828 5.77704615,94.86842 6.05166154,94.965554 C6.3252,95.065926 6.64289231,95.116651 7.00258462,95.116651 C7.37089231,95.116651 7.68858462,95.067005 7.94704615,94.972029 C8.20550769,94.874895 8.41766154,94.748621 8.58458462,94.592127 C8.74612308,94.432395 8.86566154,94.24892 8.94643077,94.037383 C9.02181538,93.824767 9.06166154,93.603517 9.06166154,93.368237 C9.06166154,93.136194 9.02181538,92.913865 8.94427692,92.702328 C8.86458462,92.489712 8.73966154,92.305157 8.57381538,92.147584 Z M12.9230769,144.780909 L12.9230769,89.738226 L14,89.738226 L14,144.780909 L12.9230769,144.780909 Z M3.72927692,76.874535 C3.92743077,76.874535 4.12235385,76.920943 4.31727692,77.012681 C4.51112308,77.105498 4.67481538,77.23501 4.80943077,77.401218 C4.95481538,77.583614 5.06896923,77.79623 5.15081538,78.040145 C5.23266154,78.28298 5.27466154,78.575462 5.27466154,78.918669 C5.27466154,79.284541 5.23912308,79.614797 5.17127692,79.909437 C5.10235385,80.201919 5.0022,80.499797 4.86758462,80.804151 L4.02004615,80.804151 L4.02004615,80.755584 C4.23327692,80.497638 4.39912308,80.19976 4.51435385,79.863029 C4.63173846,79.524138 4.68989231,79.206834 4.68989231,78.911114 C4.68989231,78.491279 4.6102,78.16426 4.45404615,77.931138 C4.29573846,77.696937 4.08681538,77.579297 3.82512308,77.579297 C3.59896923,77.579297 3.43312308,77.63434 3.32543077,77.745504 C3.21773846,77.85559 3.13481538,78.023955 3.07666154,78.249523 C3.03035385,78.422205 2.99266154,78.60676 2.96358462,78.806425 C2.93343077,79.00609 2.89681538,79.217626 2.85050769,79.441035 C2.75466154,79.893248 2.59096923,80.227821 2.36050769,80.445834 C2.12896923,80.663846 1.82635385,80.772852 1.45589231,80.772852 C1.02943077,80.772852 0.680507692,80.592614 0.408046154,80.232138 C0.135584615,79.870584 -0.000107692308,79.414053 -0.000107692308,78.859309 C-0.000107692308,78.500992 0.0332769231,78.172895 0.1022,77.873937 C0.170046154,77.573901 0.254046154,77.30948 0.355276923,77.079596 L1.15435385,77.079596 L1.15435385,77.127084 C0.990661538,77.321352 0.854969231,77.576059 0.7462,77.892285 C0.638507692,78.20851 0.584661538,78.532291 0.584661538,78.863626 C0.584661538,79.22626 0.658969231,79.516584 0.809738462,79.736754 C0.960507692,79.956925 1.15327692,80.06809 1.39127692,80.06809 C1.60235385,80.06809 1.76927692,80.013047 1.88989231,79.904041 C2.01050769,79.793955 2.10312308,79.600766 2.16666154,79.325553 C2.19896923,79.178773 2.23666154,78.970474 2.28296923,78.701736 C2.3282,78.432998 2.37558462,78.204193 2.42296923,78.01748 C2.52312308,77.638657 2.67496923,77.352651 2.87743077,77.162699 C3.07989231,76.97059 3.3642,76.874535 3.72927692,76.874535 Z M3.13718462,71.997753 C3.50656923,71.997753 3.82856923,72.038765 4.10210769,72.118631 C4.37672308,72.199576 4.60610769,72.333405 4.78810769,72.51796 C4.96149231,72.69496 5.08856923,72.898942 5.16826154,73.134223 C5.24795385,73.369503 5.2878,73.642558 5.2878,73.955546 C5.2878,74.275009 5.24472308,74.55346 5.16072308,74.790899 C5.07672308,75.028338 4.95287692,75.228003 4.78810769,75.389893 C4.60072308,75.574448 4.37564615,75.708277 4.1118,75.789223 C3.84687692,75.870168 3.52164615,75.910101 3.13718462,75.910101 L0.0927230769,75.910101 L0.0927230769,75.23232 L3.17164615,75.23232 C3.44733846,75.23232 3.66487692,75.212893 3.82533846,75.175119 C3.98364615,75.138424 4.12903077,75.075826 4.25826154,74.986247 C4.40687692,74.885875 4.5178,74.749887 4.59426154,74.577204 C4.66856923,74.404521 4.70626154,74.197302 4.70626154,73.955546 C4.70626154,73.711631 4.66964615,73.504412 4.59533846,73.332808 C4.52103077,73.161204 4.40903077,73.024137 4.25826154,72.921607 C4.12903077,72.833107 3.97933846,72.76943 3.81241538,72.732735 C3.64549231,72.69496 3.43656923,72.675534 3.18887692,72.675534 L0.0927230769,72.675534 L0.0927230769,71.997753 L3.13718462,71.997753 Z M1.62970769,67.357439 C1.85586154,67.357439 2.06478462,67.3962927 2.25647692,67.4750793 C2.44924615,67.5527866 2.61616923,67.6639512 2.75832308,67.8053354 C2.93278462,67.9812561 3.06416923,68.188476 3.15247692,68.428073 C3.23970769,68.667671 3.28493846,68.969866 3.28493846,69.335738 L3.28493846,70.013518 L5.1814,70.013518 L5.1814,70.691299 L0.0929384615,70.691299 L0.0929384615,69.307677 C0.0929384615,69.001165 0.117707692,68.74322 0.1694,68.530604 C0.220015385,68.317988 0.300784615,68.129116 0.410630769,67.9661463 C0.539861538,67.771878 0.7014,67.6218598 0.895246154,67.5160915 C1.08801538,67.4092439 1.33355385,67.357439 1.62970769,67.357439 Z M1.64693846,68.061122 C1.4714,68.061122 1.31847692,68.092421 1.18924615,68.153939 C1.05893846,68.216537 0.9534,68.308274 0.871553846,68.434549 C0.800476923,68.543555 0.749861538,68.66875 0.719707692,68.809055 C0.688476923,68.94936 0.6734,69.127439 0.6734,69.342213 L0.6734,70.013518 L2.70663077,70.013518 L2.70663077,69.440427 C2.70663077,69.166293 2.68186154,68.943963 2.6334,68.773439 C2.58386154,68.602915 2.50632308,68.463689 2.39863077,68.355762 C2.28986154,68.248915 2.17463077,68.173366 2.05401538,68.128037 C1.9334,68.083787 1.79770769,68.061122 1.64693846,68.061122 Z M5.18161538,63.1548762 L5.18161538,66.5124799 L0.0920769231,66.5124799 L0.0920769231,63.1548762 L0.694076923,63.1548762 L0.694076923,65.8346994 L2.08869231,65.8346994 L2.08869231,63.1548762 L2.69069231,63.1548762 L2.69069231,65.8346994 L4.57961538,65.8346994 L4.57961538,63.1548762 L5.18161538,63.1548762 Z M5.18107692,57.8489774 L5.18107692,58.7285811 L3.15861538,60.4327457 L3.15861538,61.3889774 L5.18107692,61.3889774 L5.18107692,62.0656787 L0.0926153846,62.0656787 L0.0926153846,60.6378067 C0.0926153846,60.3302152 0.110923077,60.0744287 0.151846154,59.8682884 C0.191692308,59.6632274 0.262769231,59.4775933 0.366153846,59.3146238 C0.481384615,59.1289896 0.627846154,58.9843677 0.804461538,58.8807579 C0.981076923,58.7771482 1.20507692,58.7253433 1.47646154,58.7253433 C1.84369231,58.7253433 2.15061538,58.8181604 2.39830769,59.0027152 C2.64492308,59.1861909 2.83123077,59.4419774 2.95615385,59.7657579 L5.18107692,57.8489774 Z M1.52384615,59.4333433 C1.37846154,59.4333433 1.24923077,59.4592457 1.13615385,59.5099713 C1.02307692,59.5617762 0.928307692,59.6470384 0.850769231,59.7657579 C0.784,59.8628921 0.738769231,59.9805323 0.711846154,60.1143616 C0.686,60.2492701 0.673076923,60.4079226 0.673076923,60.5903189 L0.673076923,61.3889774 L2.59430769,61.3889774 L2.59430769,60.7036421 C2.59430769,60.489947 2.576,60.3021543 2.53723077,60.1413433 C2.49953846,59.9826909 2.43061538,59.846703 2.32723077,59.7344591 C2.23138462,59.6330079 2.12153846,59.5563799 1.99661538,59.5067335 C1.87276923,59.4581665 1.71553846,59.4333433 1.52384615,59.4333433 Z M5.18161538,55.5283348 L5.18161538,57.5400909 L4.66253846,57.5400909 L4.66253846,56.873103 L0.612230769,56.873103 L0.612230769,57.5400909 L0.0920769231,57.5400909 L0.0920769231,55.5283348 L0.612230769,55.5283348 L0.612230769,56.1953226 L4.66253846,56.1953226 L4.66253846,55.5283348 L5.18161538,55.5283348 Z M5.18161538,50.5072549 L5.18161538,51.3458463 L0.628384615,53.7634073 L5.18161538,53.7634073 L5.18161538,54.3969378 L0.0920769231,54.3969378 L0.0920769231,53.3457305 L4.249,51.1407854 L0.0920769231,51.1407854 L0.0920769231,50.5072549 L5.18161538,50.5072549 Z M0.694076923,45.4829372 L0.694076923,47.3036628 L5.18161538,47.3036628 L5.18161538,47.980364 L0.694076923,47.980364 L0.694076923,49.8021689 L0.0920769231,49.8021689 L0.0920769231,45.4829372 L0.694076923,45.4829372 Z M5.18161538,41.4398902 L5.18161538,44.7974939 L0.0920769231,44.7974939 L0.0920769231,41.4398902 L0.694076923,41.4398902 L0.694076923,44.1197134 L2.08869231,44.1197134 L2.08869231,41.4398902 L2.69069231,41.4398902 L2.69069231,44.1197134 L4.57961538,44.1197134 L4.57961538,41.4398902 L5.18161538,41.4398902 Z M5.18161538,36.5884713 L5.18161538,37.4270628 L0.628384615,39.8446238 L5.18161538,39.8446238 L5.18161538,40.4781543 L0.0920769231,40.4781543 L0.0920769231,39.426947 L4.249,37.2220018 L0.0920769231,37.2220018 L0.0920769231,36.5884713 L5.18161538,36.5884713 Z M2.64212308,30.8930646 C3.10412308,30.8930646 3.52412308,30.9945159 3.89996923,31.196339 C4.27581538,31.3981622 4.56766154,31.6669 4.77443077,32.0014732 C4.91873846,32.2345951 5.02212308,32.4946988 5.08566154,32.7807049 C5.1492,33.066711 5.18150769,33.4444549 5.18150769,33.911778 L5.18150769,35.1993451 L0.0930461538,35.1993451 L0.0930461538,33.9247293 C0.0930461538,33.4282659 0.128584615,33.0321744 0.199661538,32.7396927 C0.271815385,32.4461317 0.369815385,32.1989793 0.495815385,31.9949976 C0.712276923,31.6485524 0.999815385,31.3776561 1.35950769,31.1833878 C1.72027692,30.9901988 2.14781538,30.8930646 2.64212308,30.8930646 Z M2.63135385,31.6010646 C2.23289231,31.6010646 1.89689231,31.6712171 1.62335385,31.8104427 C1.35089231,31.9496683 1.13443077,32.1579671 0.9772,32.4331805 C0.863046154,32.6339244 0.784430769,32.8476195 0.7392,33.0731866 C0.695046154,33.2987537 0.673507692,33.56965 0.673507692,33.8847963 L0.673507692,34.5215646 L4.59996923,34.5215646 L4.59996923,33.8847963 C4.59996923,33.557778 4.57735385,33.2739305 4.52889231,33.0300159 C4.48150769,32.7882598 4.39212308,32.5648512 4.26289231,32.3608695 C4.10027692,32.1083207 3.88704615,31.9183695 3.6232,31.7920951 C3.35827692,31.6658207 3.02766154,31.6010646 2.63135385,31.6010646 Z M5.18161538,26.5462037 L5.18161538,29.9038073 L0.0920769231,29.9038073 L0.0920769231,26.5462037 L0.694076923,26.5462037 L0.694076923,29.2260268 L2.08869231,29.2260268 L2.08869231,26.5462037 L2.69069231,26.5462037 L2.69069231,29.2260268 L4.57961538,29.2260268 L4.57961538,26.5462037 L5.18161538,26.5462037 Z M5.18161538,21.5682945 L5.18161538,22.406886 L0.628384615,24.824447 L5.18161538,24.824447 L5.18161538,25.4579774 L0.0920769231,25.4579774 L0.0920769231,24.4067701 L4.249,22.201825 L0.0920769231,22.201825 L0.0920769231,21.5682945 L5.18161538,21.5682945 Z M4.81244615,16.3680561 C4.86736923,16.4932512 4.91906154,16.6076537 4.96644615,16.7080256 C5.01383077,16.8094768 5.06336923,16.9433061 5.11613846,17.1073549 C5.15921538,17.2465805 5.19583077,17.397678 5.22813846,17.5606476 C5.25829231,17.7246963 5.27444615,17.9038549 5.27444615,18.0992024 C5.27444615,18.4693915 5.22167692,18.8061232 5.11829231,19.1083183 C5.01383077,19.4094341 4.85229231,19.6738549 4.63152308,19.8972634 C4.41506154,20.1163549 4.13936923,20.2868793 3.80552308,20.4099159 C3.47167692,20.5329524 3.08398462,20.59555 2.64136923,20.59555 C2.22244615,20.59555 1.84767692,20.535111 1.51706154,20.4174707 C1.18752308,20.2987512 0.907523077,20.1271476 0.680292308,19.903739 C0.458446154,19.6868061 0.290446154,19.4245439 0.174138462,19.1180317 C0.0578307692,18.8115195 -0.000323076923,18.4704707 -0.000323076923,18.0970439 C-0.000323076923,17.8229098 0.0330615385,17.5498549 0.0987538462,17.2768 C0.165523077,17.0037451 0.280753846,16.70155 0.447676923,16.3680561 L1.24998462,16.3680561 L1.24998462,16.419861 C1.01629231,16.7004707 0.845061538,16.9778427 0.738446154,17.2541354 C0.630753846,17.530428 0.576907692,17.8261476 0.576907692,18.1412939 C0.576907692,18.399239 0.618907692,18.6312817 0.702907692,18.837422 C0.785830769,19.0435622 0.915061538,19.2281171 1.0906,19.3900073 C1.26075385,19.5475805 1.47613846,19.6706171 1.73783077,19.7591171 C1.99844615,19.8465378 2.29998462,19.8907878 2.64136923,19.8907878 C2.99890769,19.8907878 3.30798462,19.8422207 3.56536923,19.7450866 C3.82167692,19.6479524 4.03167692,19.5227573 4.19429231,19.3695012 C4.36229231,19.2097695 4.48613846,19.0230561 4.56690769,18.8104402 C4.64875385,18.5967451 4.68967692,18.371178 4.68967692,18.1348183 C4.68967692,17.8078 4.63367692,17.5023671 4.52167692,17.216361 C4.40967692,16.9314341 4.24275385,16.6637756 4.01983077,16.4155439 L4.01983077,16.3680561 L4.81244615,16.3680561 Z M5.18161538,13.6129 L5.18161538,15.6246561 L4.66253846,15.6246561 L4.66253846,14.9576683 L0.612230769,14.9576683 L0.612230769,15.6246561 L0.0920769231,15.6246561 L0.0920769231,13.6129 L0.612230769,13.6129 L0.612230769,14.2798878 L4.66253846,14.2798878 L4.66253846,13.6129 L5.18161538,13.6129 Z M5.18118462,8.4834616 L5.18118462,9.2054921 L3.76287692,9.7051933 L3.76287692,11.9101384 L5.18118462,12.4098396 L5.18118462,13.0973335 L0.0927230769,11.2409921 L0.0927230769,10.3387238 L5.18118462,8.4834616 Z M3.18241538,9.9134921 L0.683953846,10.8071262 L3.18241538,11.7039982 L3.18241538,9.9134921 Z M10.3325385,45.2271506 C10.7945385,45.2271506 11.2134615,45.3286018 11.5903846,45.530425 C11.9662308,45.7322482 12.257,46.000986 12.4648462,46.3355591 C12.6080769,46.5686811 12.7114615,46.8287848 12.7760769,47.1147909 C12.8396154,47.400797 12.8708462,47.7785409 12.8708462,48.245864 L12.8708462,49.5334311 L7.78346154,49.5334311 L7.78346154,48.2588152 C7.78346154,47.7623518 7.819,47.3662604 7.89007692,47.0737787 C7.96223077,46.7802177 8.06023077,46.5330652 8.18515385,46.3290835 C8.40161538,45.9826384 8.68915385,45.7117421 9.04884615,45.5174738 C9.41069231,45.3242848 9.83823077,45.2271506 10.3325385,45.2271506 Z M10.3217692,45.9351506 C9.92223077,45.9351506 9.58730769,46.005303 9.31376923,46.1445287 C9.04130769,46.2837543 8.82376923,46.492053 8.66653846,46.7672665 C8.55238462,46.9680104 8.47484615,47.1817055 8.43069231,47.4072726 C8.38438462,47.6328396 8.36392308,47.903736 8.36392308,48.2188823 L8.36392308,48.8556506 L12.2903846,48.8556506 L12.2903846,48.2188823 C12.2903846,47.891864 12.2677692,47.6080165 12.2193077,47.3641018 C12.1708462,47.1223457 12.0825385,46.8989372 11.9522308,46.6949555 C11.7896154,46.4424067 11.5774615,46.2524555 11.3125385,46.1261811 C11.0497692,45.9999067 10.717,45.9351506 10.3217692,45.9351506 Z M12.8710615,40.7537994 L12.8710615,44.111403 L7.7826,44.111403 L7.7826,40.7537994 L8.3846,40.7537994 L8.3846,43.4336226 L9.77921538,43.4336226 L9.77921538,40.7537994 L10.3801385,40.7537994 L10.3801385,43.4336226 L12.2690615,43.4336226 L12.2690615,40.7537994 L12.8710615,40.7537994 Z M12.5029692,33.3622146 C12.5578923,33.4874098 12.6085077,33.6018122 12.6569692,33.7021841 C12.7043538,33.8036354 12.7528154,33.9374646 12.8055846,34.1015134 C12.8497385,34.240739 12.8874308,34.3918366 12.9175846,34.5548061 C12.9488154,34.7188549 12.9638923,34.8980134 12.9638923,35.093361 C12.9638923,35.46355 12.9111231,35.8002817 12.8077385,36.1024768 C12.7043538,36.4035927 12.5428154,36.6680134 12.3220462,36.891422 C12.1055846,37.1105134 11.8298923,37.2810378 11.4949692,37.4040744 C11.1611231,37.527111 10.7745077,37.5897085 10.3318923,37.5897085 C9.91404615,37.5897085 9.53712308,37.5292695 9.20650769,37.4116293 C8.87696923,37.2929098 8.59696923,37.1213061 8.36973846,36.8978976 C8.14896923,36.6809646 7.98096923,36.4187024 7.86466154,36.1121902 C7.74727692,35.805678 7.6902,35.4646293 7.6902,35.0912024 C7.6902,34.8170683 7.72250769,34.5440134 7.78927692,34.2709585 C7.85496923,33.9979037 7.97235385,33.6957085 8.1382,33.3622146 L8.93943077,33.3622146 L8.93943077,33.4140195 C8.70681538,33.6946293 8.53558462,33.9720012 8.42896923,34.2482939 C8.32127692,34.5245866 8.26635385,34.8203061 8.26635385,35.1354524 C8.26635385,35.3933976 8.30835385,35.6254402 8.39343077,35.8315805 C8.47527692,36.0377207 8.60558462,36.2222756 8.78004615,36.3841659 C8.9502,36.541739 9.16666154,36.6647756 9.42835385,36.7532756 C9.68896923,36.8406963 9.98943077,36.8849463 10.3318923,36.8849463 C10.6894308,36.8849463 10.9974308,36.8363793 11.2558923,36.7392451 C11.5122,36.642111 11.7222,36.5169159 11.8848154,36.3636598 C12.0528154,36.203928 12.1766615,36.0172146 12.2585077,35.8045988 C12.3392769,35.5909037 12.3791231,35.3653366 12.3791231,35.1289768 C12.3791231,34.8019585 12.3242,34.4965256 12.2122,34.2105195 C12.1012769,33.9255927 11.9332769,33.6579341 11.7103538,33.4097024 L11.7103538,33.3622146 L12.5029692,33.3622146 Z M8.36586154,28.6042604 C8.59524615,28.3970409 8.87416923,28.2383884 9.20478462,28.1272238 C9.5354,28.0160591 9.90909231,27.9610165 10.3280154,27.9610165 C10.7490923,27.9610165 11.1227846,28.0171384 11.4555538,28.1304616 C11.7861692,28.2427055 12.0629385,28.4013579 12.2837077,28.6042604 C12.5130923,28.8147177 12.6854,29.0629494 12.8038615,29.3489555 C12.9190923,29.6349616 12.9783231,29.9619799 12.9783231,30.3300104 C12.9783231,30.6872482 12.9169385,31.0142665 12.7995538,31.3067482 C12.6821692,31.6003091 12.5087846,31.8485409 12.2837077,32.0546811 C12.0564769,32.2597421 11.7818615,32.4183945 11.4534,32.5284799 C11.1249385,32.6396445 10.7512462,32.6946872 10.3280154,32.6946872 C9.9134,32.6946872 9.54186154,32.6407238 9.2134,32.5306384 C8.88278462,32.420553 8.60063077,32.2608213 8.36586154,32.0514433 C8.14293846,31.8506994 7.97170769,31.6013884 7.85432308,31.3024311 C7.73478462,31.0056323 7.67555385,30.6807726 7.67555385,30.3300104 C7.67555385,29.9641384 7.73693846,29.6360409 7.85647692,29.3457177 C7.97386154,29.0543152 8.14509231,28.8082421 8.36586154,28.6042604 Z M10.3280154,28.6657787 C9.66786154,28.6657787 9.15847692,28.8147177 8.79878462,29.1104372 C8.43909231,29.407236 8.26032308,29.8119616 8.26032308,30.3256933 C8.26032308,30.8448213 8.43909231,31.2517055 8.79878462,31.5463457 C9.15847692,31.840986 9.66786154,31.989925 10.3280154,31.989925 C10.9967846,31.989925 11.5083231,31.8388274 11.8615538,31.5377116 C12.2169385,31.2365957 12.3935538,30.8329494 12.3935538,30.3256933 C12.3935538,29.8195165 12.2169385,29.4158701 11.8615538,29.1158335 C11.5083231,28.8168762 10.9967846,28.6657787 10.3280154,28.6657787 Z M12.8710615,23.766872 L12.8710615,26.9917256 L7.7826,26.9917256 L7.7826,26.3139451 L12.2690615,26.3139451 L12.2690615,23.766872 L12.8710615,23.766872 Z M8.36586154,19.4235726 C8.59524615,19.2152738 8.87416923,19.0566213 9.20478462,18.9454567 C9.5354,18.8353713 9.90909231,18.7803287 10.3280154,18.7803287 C10.7490923,18.7803287 11.1227846,18.8364506 11.4555538,18.9486945 C11.7861692,19.0620177 12.0629385,19.2195909 12.2837077,19.4235726 C12.5130923,19.6329506 12.6854,19.8811823 12.8038615,20.1671884 C12.9190923,20.4542738 12.9783231,20.7812921 12.9783231,21.1482433 C12.9783231,21.5065604 12.9169385,21.8324994 12.7995538,22.1249811 C12.6821692,22.4185421 12.5087846,22.667853 12.2837077,22.8739933 C12.0564769,23.0790543 11.7818615,23.2366274 11.4534,23.3477921 C11.1249385,23.4578774 10.7512462,23.5129201 10.3280154,23.5129201 C9.9134,23.5129201 9.54186154,23.4589567 9.2134,23.3488713 C8.88278462,23.2398652 8.60063077,23.0801335 8.36586154,22.8696762 C8.14293846,22.6689323 7.97170769,22.4196213 7.85432308,22.1217433 C7.73478462,21.8238652 7.67555385,21.5000848 7.67555385,21.1482433 C7.67555385,20.7834506 7.73693846,20.455353 7.85647692,20.1639506 C7.97386154,19.8736274 8.14509231,19.626475 8.36586154,19.4235726 Z M10.3280154,19.4850909 C9.66786154,19.4850909 9.15847692,19.6329506 8.79878462,19.9297494 C8.43909231,20.2265482 8.26032308,20.6312738 8.26032308,21.1450055 C8.26032308,21.6630543 8.43909231,22.0699384 8.79878462,22.3645787 C9.15847692,22.6602982 9.66786154,22.8081579 10.3280154,22.8081579 C10.9967846,22.8081579 11.5083231,22.6570604 11.8615538,22.3570238 C12.2169385,22.0548287 12.3935538,21.6511823 12.3935538,21.1450055 C12.3935538,20.6377494 12.2169385,20.2351823 11.8615538,19.9351457 C11.5083231,19.6351091 10.9967846,19.4850909 10.3280154,19.4850909 Z M12.8710615,13.1244232 L12.8710615,13.8022037 L8.48583077,13.8022037 L11.4699846,15.2192829 L11.4699846,15.6229293 L8.48583077,17.0292159 L12.8710615,17.0292159 L12.8710615,17.6627463 L7.7826,17.6627463 L7.7826,16.7388927 L10.6159846,15.3800939 L7.7826,14.0655451 L7.7826,13.1244232 L12.8710615,13.1244232 Z M11.3065077,7.9682189 C11.5585077,7.9682189 11.7814308,8.0157067 11.9752769,8.1117616 C12.1702,8.2078165 12.3285077,8.3362494 12.4545077,8.4981396 C12.6042,8.6902494 12.7108154,8.9007067 12.7765077,9.1295116 C12.8389692,9.3593957 12.8712769,9.6507982 12.8712769,10.0047982 L12.8712769,11.8114933 L7.78281538,11.8114933 L7.78281538,10.3026762 C7.78281538,9.9303287 7.79573846,9.6518774 7.82266154,9.4673226 C7.85066154,9.2816884 7.90666154,9.1057677 7.99281538,8.9363226 C8.09189231,8.7496091 8.21789231,8.6136213 8.37189231,8.5294384 C8.52589231,8.4452555 8.71004615,8.403164 8.92327692,8.403164 C9.16450769,8.403164 9.37127692,8.4646823 9.54143077,8.5877189 C9.70943077,8.7107555 9.8462,8.8748043 9.94958462,9.0798652 L9.97650769,9.0798652 C10.0465077,8.7355787 10.1972769,8.4646823 10.4288154,8.266097 C10.6603538,8.0675116 10.9522,7.9682189 11.3065077,7.9682189 Z M11.3334308,8.6729811 C11.1277385,8.6729811 10.9651231,8.7042799 10.8455846,8.7657982 C10.7238923,8.8273165 10.6205077,8.9395604 10.5365077,9.1003713 C10.4794308,9.2104567 10.4438923,9.3432067 10.4266615,9.4997006 C10.4083538,9.6561945 10.3997385,9.8461457 10.3997385,10.0695543 L10.3997385,11.1337128 L12.2951231,11.1337128 L12.2951231,10.2368409 C12.2951231,9.9411213 12.2778923,9.6972067 12.2488154,9.5083348 C12.2165077,9.3194628 12.1605077,9.1640482 12.0775846,9.0431701 C11.9892769,8.9147372 11.8891231,8.8219201 11.7749692,8.7625604 C11.6597385,8.7032006 11.5143538,8.6729811 11.3334308,8.6729811 Z M9.01373846,9.1079262 C8.88881538,9.1079262 8.78650769,9.1284323 8.70250769,9.1694445 C8.61850769,9.2104567 8.54850769,9.2773713 8.49573846,9.3680299 C8.43543077,9.4748774 8.39666154,9.6054689 8.38266154,9.7576457 C8.36758462,9.9109018 8.35896923,10.100853 8.35896923,10.3264201 L8.35896923,11.1337128 L9.83004615,11.1337128 L9.83004615,10.257347 C9.83004615,10.0458104 9.81927692,9.8763652 9.79773846,9.7511701 C9.77512308,9.625975 9.73096923,9.509414 9.66096923,9.4025665 C9.5942,9.2946396 9.50589231,9.2190909 9.39604615,9.1748409 C9.28943077,9.1295116 9.1602,9.1079262 9.01373846,9.1079262 Z M12.8710615,5.271775 L12.8710615,7.2846104 L12.3519846,7.2846104 L12.3519846,6.6176226 L8.30275385,6.6176226 L8.30275385,7.2846104 L7.7826,7.2846104 L7.7826,5.271775 L8.30275385,5.271775 L8.30275385,5.9398421 L12.3519846,5.9398421 L12.3519846,5.271775 L12.8710615,5.271775 Z M12.8705231,0.1211829 L12.8705231,0.8442927 L11.4532923,1.3439939 L11.4532923,3.5478598 L12.8705231,4.047561 L12.8705231,4.7350549 L7.78313846,2.8797927 L7.78313846,1.9764451 L12.8705231,0.1211829 Z M10.8728308,1.5522927 L8.37436923,2.4459268 L10.8728308,3.3427988 L10.8728308,1.5522927 Z" id="path-1"></path>
    </defs>
    <g id="Page-1" stroke="none" stroke-width="1" fill="none" fill-rule="evenodd">
        <g id="Group" transform="translate(6.500000, 90.000000) rotate(-90.000000) translate(-6.500000, -90.000000) translate(-85.500000, 82.500000)">
            <g id="logo-super-copy" transform="translate(72.500000, 8.000000) rotate(90.000000) translate(-72.500000, -8.000000) translate(65.500000, -64.500000)">
                <g id="Mask">
                    <path d="M0.00107692308,144.780909 L0.00107692308,89.738226 L1.078,89.738226 L1.078,144.780909 L0.00107692308,144.780909 Z M3.89964615,137.602263 L10.1027231,140.175239 L10.1027231,142.210739 L3.89964615,144.780477 L3.89964615,142.871251 L8.25364615,141.167087 L3.89964615,139.464001 L3.89964615,137.602263 Z M10.1029385,132.80988 L10.1029385,136.937002 L9.0034,136.937002 L9.0034,135.782185 L4.9994,135.782185 L4.9994,136.937002 L3.89986154,136.937002 L3.89986154,132.80988 L4.9994,132.80988 L4.9994,133.964698 L9.0034,133.964698 L9.0034,132.80988 L10.1029385,132.80988 Z M9.74755385,125.121173 C9.8574,125.437399 9.96401538,125.857234 10.0717077,126.376362 C10.1783231,126.897649 10.2310923,127.416777 10.2310923,127.932667 C10.2310923,129.132813 9.94570769,130.071777 9.37063077,130.750637 C8.79878462,131.429496 8.00616923,131.768387 6.99601538,131.768387 C6.03109231,131.768387 5.25355385,131.427338 4.6634,130.742002 C4.07432308,130.056667 3.77924615,129.101515 3.77924615,127.877624 C3.77924615,127.413539 3.81586154,126.971039 3.88909231,126.551204 C3.96232308,126.131368 4.10770769,125.666204 4.32955385,125.151393 L5.78232308,125.151393 L5.78232308,125.352137 C5.72416923,125.441716 5.64124615,125.572307 5.53463077,125.741752 C5.42801538,125.912277 5.33647692,126.076326 5.26109231,126.234978 C5.17278462,126.416295 5.09524615,126.62999 5.03386154,126.876063 C4.96709231,127.122137 4.93693846,127.380082 4.93693846,127.654216 C4.93693846,127.976917 4.97786154,128.269399 5.06186154,128.530582 C5.14586154,128.791765 5.27293846,129.028124 5.44524615,129.235344 C5.61324615,129.433929 5.82432308,129.590423 6.08063077,129.705905 C6.33693846,129.821387 6.63524615,129.879667 6.96909231,129.879667 C7.65724615,129.879667 8.18278462,129.673527 8.54678462,129.259088 C8.90863077,128.845728 9.09170769,128.235941 9.09170769,127.42757 C9.09170769,127.359576 9.08955385,127.280789 9.08524615,127.197685 C9.08524615,127.114582 9.08093846,127.036874 9.07447692,126.96888 L7.85647692,126.96888 L7.85647692,128.373009 L6.68693846,128.373009 L6.68693846,125.121173 L9.74755385,125.121173 Z M10.1029385,119.712204 L10.1029385,123.839326 L9.0034,123.839326 L9.0034,122.684509 L4.9994,122.684509 L4.9994,123.839326 L3.89986154,123.839326 L3.89986154,119.712204 L4.9994,119.712204 L4.9994,120.867021 L9.0034,120.867021 L9.0034,119.712204 L10.1029385,119.712204 Z M10.1029385,113.17227 L10.1029385,118.259941 L3.89986154,118.259941 L3.89986154,116.442453 L8.90432308,116.442453 L8.90432308,113.17227 L10.1029385,113.17227 Z M10.1032615,105.595915 L10.1032615,107.474921 L8.84756923,107.963829 L8.84756923,110.572421 L10.1032615,111.064567 L10.1032615,112.893927 L3.89910769,110.291811 L3.89910769,108.200189 L10.1032615,105.595915 Z M7.71141538,108.402012 L5.48864615,109.269744 L7.71141538,110.134238 L7.71141538,108.402012 Z M7.00656923,97.953184 C7.58487692,97.953184 8.10287692,98.099965 8.55949231,98.400001 C9.01503077,98.701117 9.36718462,99.08102 9.61272308,99.538629 C9.79364615,99.880757 9.92395385,100.258501 9.99610769,100.667544 C10.0671846,101.077666 10.1027231,101.564416 10.1027231,102.127794 L10.1027231,104.610111 L3.89964615,104.610111 L3.89964615,102.055483 C3.89964615,101.481312 3.94164615,100.984849 4.02672308,100.568251 C4.10964615,100.152733 4.23133846,99.801971 4.38641538,99.518123 C4.64810769,99.032452 4.99918462,98.648233 5.44287692,98.369782 C5.88656923,98.09133 6.4078,97.953184 7.00656923,97.953184 Z M6.9958,99.831111 C6.58656923,99.831111 6.23764615,99.915294 5.9458,100.08258 C5.65826154,100.252026 5.42995385,100.520763 5.26626154,100.885556 C5.18441538,101.07227 5.13056923,101.262221 5.10149231,101.456489 C5.07241538,101.650757 5.05841538,101.943239 5.05841538,102.335013 L5.05841538,102.793702 L8.9418,102.793702 L8.9418,102.335013 C8.9418,101.904385 8.92349231,101.583843 8.88903077,101.383099 C8.85349231,101.181276 8.79103077,100.98377 8.70056923,100.79058 C8.53364615,100.459245 8.31072308,100.217489 8.03072308,100.062074 C7.7518,99.907739 7.40610769,99.831111 6.9958,99.831111 Z M7.00258462,89.738657 C7.99335385,89.738657 8.77735385,90.0592 9.35889231,90.703523 C9.94258462,91.346767 10.2312,92.237163 10.2312,93.374712 C10.2312,94.509023 9.94258462,95.396182 9.35889231,96.038346 C8.77735385,96.683749 7.99335385,97.004291 7.00258462,97.004291 C6.00535385,97.004291 5.21704615,96.683749 4.63873846,96.038346 C4.05935385,95.396182 3.77073846,94.509023 3.77073846,93.374712 C3.77073846,92.244718 4.05935385,91.35648 4.63873846,90.70892 C5.21704615,90.061359 6.00535385,89.738657 7.00258462,89.738657 Z M8.57381538,92.147584 C8.38643077,91.969505 8.16135385,91.839993 7.90504615,91.75473 C7.64873846,91.669468 7.34504615,91.627377 6.99827692,91.627377 C6.62781538,91.627377 6.3112,91.675944 6.05058462,91.774157 C5.78889231,91.871291 5.57781538,91.998645 5.41627692,92.157298 C5.24935385,92.318109 5.12766154,92.503743 5.05443077,92.7142 C4.97796923,92.923578 4.94135385,93.140511 4.94135385,93.368237 C4.94135385,93.600279 4.97689231,93.816133 5.04904615,94.019035 C5.1212,94.224096 5.24073846,94.40973 5.40766154,94.580255 C5.56381538,94.737828 5.77704615,94.86842 6.05166154,94.965554 C6.3252,95.065926 6.64289231,95.116651 7.00258462,95.116651 C7.37089231,95.116651 7.68858462,95.067005 7.94704615,94.972029 C8.20550769,94.874895 8.41766154,94.748621 8.58458462,94.592127 C8.74612308,94.432395 8.86566154,94.24892 8.94643077,94.037383 C9.02181538,93.824767 9.06166154,93.603517 9.06166154,93.368237 C9.06166154,93.136194 9.02181538,92.913865 8.94427692,92.702328 C8.86458462,92.489712 8.73966154,92.305157 8.57381538,92.147584 Z M12.9230769,144.780909 L12.9230769,89.738226 L14,89.738226 L14,144.780909 L12.9230769,144.780909 Z M3.72927692,76.874535 C3.92743077,76.874535 4.12235385,76.920943 4.31727692,77.012681 C4.51112308,77.105498 4.67481538,77.23501 4.80943077,77.401218 C4.95481538,77.583614 5.06896923,77.79623 5.15081538,78.040145 C5.23266154,78.28298 5.27466154,78.575462 5.27466154,78.918669 C5.27466154,79.284541 5.23912308,79.614797 5.17127692,79.909437 C5.10235385,80.201919 5.0022,80.499797 4.86758462,80.804151 L4.02004615,80.804151 L4.02004615,80.755584 C4.23327692,80.497638 4.39912308,80.19976 4.51435385,79.863029 C4.63173846,79.524138 4.68989231,79.206834 4.68989231,78.911114 C4.68989231,78.491279 4.6102,78.16426 4.45404615,77.931138 C4.29573846,77.696937 4.08681538,77.579297 3.82512308,77.579297 C3.59896923,77.579297 3.43312308,77.63434 3.32543077,77.745504 C3.21773846,77.85559 3.13481538,78.023955 3.07666154,78.249523 C3.03035385,78.422205 2.99266154,78.60676 2.96358462,78.806425 C2.93343077,79.00609 2.89681538,79.217626 2.85050769,79.441035 C2.75466154,79.893248 2.59096923,80.227821 2.36050769,80.445834 C2.12896923,80.663846 1.82635385,80.772852 1.45589231,80.772852 C1.02943077,80.772852 0.680507692,80.592614 0.408046154,80.232138 C0.135584615,79.870584 -0.000107692308,79.414053 -0.000107692308,78.859309 C-0.000107692308,78.500992 0.0332769231,78.172895 0.1022,77.873937 C0.170046154,77.573901 0.254046154,77.30948 0.355276923,77.079596 L1.15435385,77.079596 L1.15435385,77.127084 C0.990661538,77.321352 0.854969231,77.576059 0.7462,77.892285 C0.638507692,78.20851 0.584661538,78.532291 0.584661538,78.863626 C0.584661538,79.22626 0.658969231,79.516584 0.809738462,79.736754 C0.960507692,79.956925 1.15327692,80.06809 1.39127692,80.06809 C1.60235385,80.06809 1.76927692,80.013047 1.88989231,79.904041 C2.01050769,79.793955 2.10312308,79.600766 2.16666154,79.325553 C2.19896923,79.178773 2.23666154,78.970474 2.28296923,78.701736 C2.3282,78.432998 2.37558462,78.204193 2.42296923,78.01748 C2.52312308,77.638657 2.67496923,77.352651 2.87743077,77.162699 C3.07989231,76.97059 3.3642,76.874535 3.72927692,76.874535 Z M3.13718462,71.997753 C3.50656923,71.997753 3.82856923,72.038765 4.10210769,72.118631 C4.37672308,72.199576 4.60610769,72.333405 4.78810769,72.51796 C4.96149231,72.69496 5.08856923,72.898942 5.16826154,73.134223 C5.24795385,73.369503 5.2878,73.642558 5.2878,73.955546 C5.2878,74.275009 5.24472308,74.55346 5.16072308,74.790899 C5.07672308,75.028338 4.95287692,75.228003 4.78810769,75.389893 C4.60072308,75.574448 4.37564615,75.708277 4.1118,75.789223 C3.84687692,75.870168 3.52164615,75.910101 3.13718462,75.910101 L0.0927230769,75.910101 L0.0927230769,75.23232 L3.17164615,75.23232 C3.44733846,75.23232 3.66487692,75.212893 3.82533846,75.175119 C3.98364615,75.138424 4.12903077,75.075826 4.25826154,74.986247 C4.40687692,74.885875 4.5178,74.749887 4.59426154,74.577204 C4.66856923,74.404521 4.70626154,74.197302 4.70626154,73.955546 C4.70626154,73.711631 4.66964615,73.504412 4.59533846,73.332808 C4.52103077,73.161204 4.40903077,73.024137 4.25826154,72.921607 C4.12903077,72.833107 3.97933846,72.76943 3.81241538,72.732735 C3.64549231,72.69496 3.43656923,72.675534 3.18887692,72.675534 L0.0927230769,72.675534 L0.0927230769,71.997753 L3.13718462,71.997753 Z M1.62970769,67.357439 C1.85586154,67.357439 2.06478462,67.3962927 2.25647692,67.4750793 C2.44924615,67.5527866 2.61616923,67.6639512 2.75832308,67.8053354 C2.93278462,67.9812561 3.06416923,68.188476 3.15247692,68.428073 C3.23970769,68.667671 3.28493846,68.969866 3.28493846,69.335738 L3.28493846,70.013518 L5.1814,70.013518 L5.1814,70.691299 L0.0929384615,70.691299 L0.0929384615,69.307677 C0.0929384615,69.001165 0.117707692,68.74322 0.1694,68.530604 C0.220015385,68.317988 0.300784615,68.129116 0.410630769,67.9661463 C0.539861538,67.771878 0.7014,67.6218598 0.895246154,67.5160915 C1.08801538,67.4092439 1.33355385,67.357439 1.62970769,67.357439 Z M1.64693846,68.061122 C1.4714,68.061122 1.31847692,68.092421 1.18924615,68.153939 C1.05893846,68.216537 0.9534,68.308274 0.871553846,68.434549 C0.800476923,68.543555 0.749861538,68.66875 0.719707692,68.809055 C0.688476923,68.94936 0.6734,69.127439 0.6734,69.342213 L0.6734,70.013518 L2.70663077,70.013518 L2.70663077,69.440427 C2.70663077,69.166293 2.68186154,68.943963 2.6334,68.773439 C2.58386154,68.602915 2.50632308,68.463689 2.39863077,68.355762 C2.28986154,68.248915 2.17463077,68.173366 2.05401538,68.128037 C1.9334,68.083787 1.79770769,68.061122 1.64693846,68.061122 Z M5.18161538,63.1548762 L5.18161538,66.5124799 L0.0920769231,66.5124799 L0.0920769231,63.1548762 L0.694076923,63.1548762 L0.694076923,65.8346994 L2.08869231,65.8346994 L2.08869231,63.1548762 L2.69069231,63.1548762 L2.69069231,65.8346994 L4.57961538,65.8346994 L4.57961538,63.1548762 L5.18161538,63.1548762 Z M5.18107692,57.8489774 L5.18107692,58.7285811 L3.15861538,60.4327457 L3.15861538,61.3889774 L5.18107692,61.3889774 L5.18107692,62.0656787 L0.0926153846,62.0656787 L0.0926153846,60.6378067 C0.0926153846,60.3302152 0.110923077,60.0744287 0.151846154,59.8682884 C0.191692308,59.6632274 0.262769231,59.4775933 0.366153846,59.3146238 C0.481384615,59.1289896 0.627846154,58.9843677 0.804461538,58.8807579 C0.981076923,58.7771482 1.20507692,58.7253433 1.47646154,58.7253433 C1.84369231,58.7253433 2.15061538,58.8181604 2.39830769,59.0027152 C2.64492308,59.1861909 2.83123077,59.4419774 2.95615385,59.7657579 L5.18107692,57.8489774 Z M1.52384615,59.4333433 C1.37846154,59.4333433 1.24923077,59.4592457 1.13615385,59.5099713 C1.02307692,59.5617762 0.928307692,59.6470384 0.850769231,59.7657579 C0.784,59.8628921 0.738769231,59.9805323 0.711846154,60.1143616 C0.686,60.2492701 0.673076923,60.4079226 0.673076923,60.5903189 L0.673076923,61.3889774 L2.59430769,61.3889774 L2.59430769,60.7036421 C2.59430769,60.489947 2.576,60.3021543 2.53723077,60.1413433 C2.49953846,59.9826909 2.43061538,59.846703 2.32723077,59.7344591 C2.23138462,59.6330079 2.12153846,59.5563799 1.99661538,59.5067335 C1.87276923,59.4581665 1.71553846,59.4333433 1.52384615,59.4333433 Z M5.18161538,55.5283348 L5.18161538,57.5400909 L4.66253846,57.5400909 L4.66253846,56.873103 L0.612230769,56.873103 L0.612230769,57.5400909 L0.0920769231,57.5400909 L0.0920769231,55.5283348 L0.612230769,55.5283348 L0.612230769,56.1953226 L4.66253846,56.1953226 L4.66253846,55.5283348 L5.18161538,55.5283348 Z M5.18161538,50.5072549 L5.18161538,51.3458463 L0.628384615,53.7634073 L5.18161538,53.7634073 L5.18161538,54.3969378 L0.0920769231,54.3969378 L0.0920769231,53.3457305 L4.249,51.1407854 L0.0920769231,51.1407854 L0.0920769231,50.5072549 L5.18161538,50.5072549 Z M0.694076923,45.4829372 L0.694076923,47.3036628 L5.18161538,47.3036628 L5.18161538,47.980364 L0.694076923,47.980364 L0.694076923,49.8021689 L0.0920769231,49.8021689 L0.0920769231,45.4829372 L0.694076923,45.4829372 Z M5.18161538,41.4398902 L5.18161538,44.7974939 L0.0920769231,44.7974939 L0.0920769231,41.4398902 L0.694076923,41.4398902 L0.694076923,44.1197134 L2.08869231,44.1197134 L2.08869231,41.4398902 L2.69069231,41.4398902 L2.69069231,44.1197134 L4.57961538,44.1197134 L4.57961538,41.4398902 L5.18161538,41.4398902 Z M5.18161538,36.5884713 L5.18161538,37.4270628 L0.628384615,39.8446238 L5.18161538,39.8446238 L5.18161538,40.4781543 L0.0920769231,40.4781543 L0.0920769231,39.426947 L4.249,37.2220018 L0.0920769231,37.2220018 L0.0920769231,36.5884713 L5.18161538,36.5884713 Z M2.64212308,30.8930646 C3.10412308,30.8930646 3.52412308,30.9945159 3.89996923,31.196339 C4.27581538,31.3981622 4.56766154,31.6669 4.77443077,32.0014732 C4.91873846,32.2345951 5.02212308,32.4946988 5.08566154,32.7807049 C5.1492,33.066711 5.18150769,33.4444549 5.18150769,33.911778 L5.18150769,35.1993451 L0.0930461538,35.1993451 L0.0930461538,33.9247293 C0.0930461538,33.4282659 0.128584615,33.0321744 0.199661538,32.7396927 C0.271815385,32.4461317 0.369815385,32.1989793 0.495815385,31.9949976 C0.712276923,31.6485524 0.999815385,31.3776561 1.35950769,31.1833878 C1.72027692,30.9901988 2.14781538,30.8930646 2.64212308,30.8930646 Z M2.63135385,31.6010646 C2.23289231,31.6010646 1.89689231,31.6712171 1.62335385,31.8104427 C1.35089231,31.9496683 1.13443077,32.1579671 0.9772,32.4331805 C0.863046154,32.6339244 0.784430769,32.8476195 0.7392,33.0731866 C0.695046154,33.2987537 0.673507692,33.56965 0.673507692,33.8847963 L0.673507692,34.5215646 L4.59996923,34.5215646 L4.59996923,33.8847963 C4.59996923,33.557778 4.57735385,33.2739305 4.52889231,33.0300159 C4.48150769,32.7882598 4.39212308,32.5648512 4.26289231,32.3608695 C4.10027692,32.1083207 3.88704615,31.9183695 3.6232,31.7920951 C3.35827692,31.6658207 3.02766154,31.6010646 2.63135385,31.6010646 Z M5.18161538,26.5462037 L5.18161538,29.9038073 L0.0920769231,29.9038073 L0.0920769231,26.5462037 L0.694076923,26.5462037 L0.694076923,29.2260268 L2.08869231,29.2260268 L2.08869231,26.5462037 L2.69069231,26.5462037 L2.69069231,29.2260268 L4.57961538,29.2260268 L4.57961538,26.5462037 L5.18161538,26.5462037 Z M5.18161538,21.5682945 L5.18161538,22.406886 L0.628384615,24.824447 L5.18161538,24.824447 L5.18161538,25.4579774 L0.0920769231,25.4579774 L0.0920769231,24.4067701 L4.249,22.201825 L0.0920769231,22.201825 L0.0920769231,21.5682945 L5.18161538,21.5682945 Z M4.81244615,16.3680561 C4.86736923,16.4932512 4.91906154,16.6076537 4.96644615,16.7080256 C5.01383077,16.8094768 5.06336923,16.9433061 5.11613846,17.1073549 C5.15921538,17.2465805 5.19583077,17.397678 5.22813846,17.5606476 C5.25829231,17.7246963 5.27444615,17.9038549 5.27444615,18.0992024 C5.27444615,18.4693915 5.22167692,18.8061232 5.11829231,19.1083183 C5.01383077,19.4094341 4.85229231,19.6738549 4.63152308,19.8972634 C4.41506154,20.1163549 4.13936923,20.2868793 3.80552308,20.4099159 C3.47167692,20.5329524 3.08398462,20.59555 2.64136923,20.59555 C2.22244615,20.59555 1.84767692,20.535111 1.51706154,20.4174707 C1.18752308,20.2987512 0.907523077,20.1271476 0.680292308,19.903739 C0.458446154,19.6868061 0.290446154,19.4245439 0.174138462,19.1180317 C0.0578307692,18.8115195 -0.000323076923,18.4704707 -0.000323076923,18.0970439 C-0.000323076923,17.8229098 0.0330615385,17.5498549 0.0987538462,17.2768 C0.165523077,17.0037451 0.280753846,16.70155 0.447676923,16.3680561 L1.24998462,16.3680561 L1.24998462,16.419861 C1.01629231,16.7004707 0.845061538,16.9778427 0.738446154,17.2541354 C0.630753846,17.530428 0.576907692,17.8261476 0.576907692,18.1412939 C0.576907692,18.399239 0.618907692,18.6312817 0.702907692,18.837422 C0.785830769,19.0435622 0.915061538,19.2281171 1.0906,19.3900073 C1.26075385,19.5475805 1.47613846,19.6706171 1.73783077,19.7591171 C1.99844615,19.8465378 2.29998462,19.8907878 2.64136923,19.8907878 C2.99890769,19.8907878 3.30798462,19.8422207 3.56536923,19.7450866 C3.82167692,19.6479524 4.03167692,19.5227573 4.19429231,19.3695012 C4.36229231,19.2097695 4.48613846,19.0230561 4.56690769,18.8104402 C4.64875385,18.5967451 4.68967692,18.371178 4.68967692,18.1348183 C4.68967692,17.8078 4.63367692,17.5023671 4.52167692,17.216361 C4.40967692,16.9314341 4.24275385,16.6637756 4.01983077,16.4155439 L4.01983077,16.3680561 L4.81244615,16.3680561 Z M5.18161538,13.6129 L5.18161538,15.6246561 L4.66253846,15.6246561 L4.66253846,14.9576683 L0.612230769,14.9576683 L0.612230769,15.6246561 L0.0920769231,15.6246561 L0.0920769231,13.6129 L0.612230769,13.6129 L0.612230769,14.2798878 L4.66253846,14.2798878 L4.66253846,13.6129 L5.18161538,13.6129 Z M5.18118462,8.4834616 L5.18118462,9.2054921 L3.76287692,9.7051933 L3.76287692,11.9101384 L5.18118462,12.4098396 L5.18118462,13.0973335 L0.0927230769,11.2409921 L0.0927230769,10.3387238 L5.18118462,8.4834616 Z M3.18241538,9.9134921 L0.683953846,10.8071262 L3.18241538,11.7039982 L3.18241538,9.9134921 Z M10.3325385,45.2271506 C10.7945385,45.2271506 11.2134615,45.3286018 11.5903846,45.530425 C11.9662308,45.7322482 12.257,46.000986 12.4648462,46.3355591 C12.6080769,46.5686811 12.7114615,46.8287848 12.7760769,47.1147909 C12.8396154,47.400797 12.8708462,47.7785409 12.8708462,48.245864 L12.8708462,49.5334311 L7.78346154,49.5334311 L7.78346154,48.2588152 C7.78346154,47.7623518 7.819,47.3662604 7.89007692,47.0737787 C7.96223077,46.7802177 8.06023077,46.5330652 8.18515385,46.3290835 C8.40161538,45.9826384 8.68915385,45.7117421 9.04884615,45.5174738 C9.41069231,45.3242848 9.83823077,45.2271506 10.3325385,45.2271506 Z M10.3217692,45.9351506 C9.92223077,45.9351506 9.58730769,46.005303 9.31376923,46.1445287 C9.04130769,46.2837543 8.82376923,46.492053 8.66653846,46.7672665 C8.55238462,46.9680104 8.47484615,47.1817055 8.43069231,47.4072726 C8.38438462,47.6328396 8.36392308,47.903736 8.36392308,48.2188823 L8.36392308,48.8556506 L12.2903846,48.8556506 L12.2903846,48.2188823 C12.2903846,47.891864 12.2677692,47.6080165 12.2193077,47.3641018 C12.1708462,47.1223457 12.0825385,46.8989372 11.9522308,46.6949555 C11.7896154,46.4424067 11.5774615,46.2524555 11.3125385,46.1261811 C11.0497692,45.9999067 10.717,45.9351506 10.3217692,45.9351506 Z M12.8710615,40.7537994 L12.8710615,44.111403 L7.7826,44.111403 L7.7826,40.7537994 L8.3846,40.7537994 L8.3846,43.4336226 L9.77921538,43.4336226 L9.77921538,40.7537994 L10.3801385,40.7537994 L10.3801385,43.4336226 L12.2690615,43.4336226 L12.2690615,40.7537994 L12.8710615,40.7537994 Z M12.5029692,33.3622146 C12.5578923,33.4874098 12.6085077,33.6018122 12.6569692,33.7021841 C12.7043538,33.8036354 12.7528154,33.9374646 12.8055846,34.1015134 C12.8497385,34.240739 12.8874308,34.3918366 12.9175846,34.5548061 C12.9488154,34.7188549 12.9638923,34.8980134 12.9638923,35.093361 C12.9638923,35.46355 12.9111231,35.8002817 12.8077385,36.1024768 C12.7043538,36.4035927 12.5428154,36.6680134 12.3220462,36.891422 C12.1055846,37.1105134 11.8298923,37.2810378 11.4949692,37.4040744 C11.1611231,37.527111 10.7745077,37.5897085 10.3318923,37.5897085 C9.91404615,37.5897085 9.53712308,37.5292695 9.20650769,37.4116293 C8.87696923,37.2929098 8.59696923,37.1213061 8.36973846,36.8978976 C8.14896923,36.6809646 7.98096923,36.4187024 7.86466154,36.1121902 C7.74727692,35.805678 7.6902,35.4646293 7.6902,35.0912024 C7.6902,34.8170683 7.72250769,34.5440134 7.78927692,34.2709585 C7.85496923,33.9979037 7.97235385,33.6957085 8.1382,33.3622146 L8.93943077,33.3622146 L8.93943077,33.4140195 C8.70681538,33.6946293 8.53558462,33.9720012 8.42896923,34.2482939 C8.32127692,34.5245866 8.26635385,34.8203061 8.26635385,35.1354524 C8.26635385,35.3933976 8.30835385,35.6254402 8.39343077,35.8315805 C8.47527692,36.0377207 8.60558462,36.2222756 8.78004615,36.3841659 C8.9502,36.541739 9.16666154,36.6647756 9.42835385,36.7532756 C9.68896923,36.8406963 9.98943077,36.8849463 10.3318923,36.8849463 C10.6894308,36.8849463 10.9974308,36.8363793 11.2558923,36.7392451 C11.5122,36.642111 11.7222,36.5169159 11.8848154,36.3636598 C12.0528154,36.203928 12.1766615,36.0172146 12.2585077,35.8045988 C12.3392769,35.5909037 12.3791231,35.3653366 12.3791231,35.1289768 C12.3791231,34.8019585 12.3242,34.4965256 12.2122,34.2105195 C12.1012769,33.9255927 11.9332769,33.6579341 11.7103538,33.4097024 L11.7103538,33.3622146 L12.5029692,33.3622146 Z M8.36586154,28.6042604 C8.59524615,28.3970409 8.87416923,28.2383884 9.20478462,28.1272238 C9.5354,28.0160591 9.90909231,27.9610165 10.3280154,27.9610165 C10.7490923,27.9610165 11.1227846,28.0171384 11.4555538,28.1304616 C11.7861692,28.2427055 12.0629385,28.4013579 12.2837077,28.6042604 C12.5130923,28.8147177 12.6854,29.0629494 12.8038615,29.3489555 C12.9190923,29.6349616 12.9783231,29.9619799 12.9783231,30.3300104 C12.9783231,30.6872482 12.9169385,31.0142665 12.7995538,31.3067482 C12.6821692,31.6003091 12.5087846,31.8485409 12.2837077,32.0546811 C12.0564769,32.2597421 11.7818615,32.4183945 11.4534,32.5284799 C11.1249385,32.6396445 10.7512462,32.6946872 10.3280154,32.6946872 C9.9134,32.6946872 9.54186154,32.6407238 9.2134,32.5306384 C8.88278462,32.420553 8.60063077,32.2608213 8.36586154,32.0514433 C8.14293846,31.8506994 7.97170769,31.6013884 7.85432308,31.3024311 C7.73478462,31.0056323 7.67555385,30.6807726 7.67555385,30.3300104 C7.67555385,29.9641384 7.73693846,29.6360409 7.85647692,29.3457177 C7.97386154,29.0543152 8.14509231,28.8082421 8.36586154,28.6042604 Z M10.3280154,28.6657787 C9.66786154,28.6657787 9.15847692,28.8147177 8.79878462,29.1104372 C8.43909231,29.407236 8.26032308,29.8119616 8.26032308,30.3256933 C8.26032308,30.8448213 8.43909231,31.2517055 8.79878462,31.5463457 C9.15847692,31.840986 9.66786154,31.989925 10.3280154,31.989925 C10.9967846,31.989925 11.5083231,31.8388274 11.8615538,31.5377116 C12.2169385,31.2365957 12.3935538,30.8329494 12.3935538,30.3256933 C12.3935538,29.8195165 12.2169385,29.4158701 11.8615538,29.1158335 C11.5083231,28.8168762 10.9967846,28.6657787 10.3280154,28.6657787 Z M12.8710615,23.766872 L12.8710615,26.9917256 L7.7826,26.9917256 L7.7826,26.3139451 L12.2690615,26.3139451 L12.2690615,23.766872 L12.8710615,23.766872 Z M8.36586154,19.4235726 C8.59524615,19.2152738 8.87416923,19.0566213 9.20478462,18.9454567 C9.5354,18.8353713 9.90909231,18.7803287 10.3280154,18.7803287 C10.7490923,18.7803287 11.1227846,18.8364506 11.4555538,18.9486945 C11.7861692,19.0620177 12.0629385,19.2195909 12.2837077,19.4235726 C12.5130923,19.6329506 12.6854,19.8811823 12.8038615,20.1671884 C12.9190923,20.4542738 12.9783231,20.7812921 12.9783231,21.1482433 C12.9783231,21.5065604 12.9169385,21.8324994 12.7995538,22.1249811 C12.6821692,22.4185421 12.5087846,22.667853 12.2837077,22.8739933 C12.0564769,23.0790543 11.7818615,23.2366274 11.4534,23.3477921 C11.1249385,23.4578774 10.7512462,23.5129201 10.3280154,23.5129201 C9.9134,23.5129201 9.54186154,23.4589567 9.2134,23.3488713 C8.88278462,23.2398652 8.60063077,23.0801335 8.36586154,22.8696762 C8.14293846,22.6689323 7.97170769,22.4196213 7.85432308,22.1217433 C7.73478462,21.8238652 7.67555385,21.5000848 7.67555385,21.1482433 C7.67555385,20.7834506 7.73693846,20.455353 7.85647692,20.1639506 C7.97386154,19.8736274 8.14509231,19.626475 8.36586154,19.4235726 Z M10.3280154,19.4850909 C9.66786154,19.4850909 9.15847692,19.6329506 8.79878462,19.9297494 C8.43909231,20.2265482 8.26032308,20.6312738 8.26032308,21.1450055 C8.26032308,21.6630543 8.43909231,22.0699384 8.79878462,22.3645787 C9.15847692,22.6602982 9.66786154,22.8081579 10.3280154,22.8081579 C10.9967846,22.8081579 11.5083231,22.6570604 11.8615538,22.3570238 C12.2169385,22.0548287 12.3935538,21.6511823 12.3935538,21.1450055 C12.3935538,20.6377494 12.2169385,20.2351823 11.8615538,19.9351457 C11.5083231,19.6351091 10.9967846,19.4850909 10.3280154,19.4850909 Z M12.8710615,13.1244232 L12.8710615,13.8022037 L8.48583077,13.8022037 L11.4699846,15.2192829 L11.4699846,15.6229293 L8.48583077,17.0292159 L12.8710615,17.0292159 L12.8710615,17.6627463 L7.7826,17.6627463 L7.7826,16.7388927 L10.6159846,15.3800939 L7.7826,14.0655451 L7.7826,13.1244232 L12.8710615,13.1244232 Z M11.3065077,7.9682189 C11.5585077,7.9682189 11.7814308,8.0157067 11.9752769,8.1117616 C12.1702,8.2078165 12.3285077,8.3362494 12.4545077,8.4981396 C12.6042,8.6902494 12.7108154,8.9007067 12.7765077,9.1295116 C12.8389692,9.3593957 12.8712769,9.6507982 12.8712769,10.0047982 L12.8712769,11.8114933 L7.78281538,11.8114933 L7.78281538,10.3026762 C7.78281538,9.9303287 7.79573846,9.6518774 7.82266154,9.4673226 C7.85066154,9.2816884 7.90666154,9.1057677 7.99281538,8.9363226 C8.09189231,8.7496091 8.21789231,8.6136213 8.37189231,8.5294384 C8.52589231,8.4452555 8.71004615,8.403164 8.92327692,8.403164 C9.16450769,8.403164 9.37127692,8.4646823 9.54143077,8.5877189 C9.70943077,8.7107555 9.8462,8.8748043 9.94958462,9.0798652 L9.97650769,9.0798652 C10.0465077,8.7355787 10.1972769,8.4646823 10.4288154,8.266097 C10.6603538,8.0675116 10.9522,7.9682189 11.3065077,7.9682189 Z M11.3334308,8.6729811 C11.1277385,8.6729811 10.9651231,8.7042799 10.8455846,8.7657982 C10.7238923,8.8273165 10.6205077,8.9395604 10.5365077,9.1003713 C10.4794308,9.2104567 10.4438923,9.3432067 10.4266615,9.4997006 C10.4083538,9.6561945 10.3997385,9.8461457 10.3997385,10.0695543 L10.3997385,11.1337128 L12.2951231,11.1337128 L12.2951231,10.2368409 C12.2951231,9.9411213 12.2778923,9.6972067 12.2488154,9.5083348 C12.2165077,9.3194628 12.1605077,9.1640482 12.0775846,9.0431701 C11.9892769,8.9147372 11.8891231,8.8219201 11.7749692,8.7625604 C11.6597385,8.7032006 11.5143538,8.6729811 11.3334308,8.6729811 Z M9.01373846,9.1079262 C8.88881538,9.1079262 8.78650769,9.1284323 8.70250769,9.1694445 C8.61850769,9.2104567 8.54850769,9.2773713 8.49573846,9.3680299 C8.43543077,9.4748774 8.39666154,9.6054689 8.38266154,9.7576457 C8.36758462,9.9109018 8.35896923,10.100853 8.35896923,10.3264201 L8.35896923,11.1337128 L9.83004615,11.1337128 L9.83004615,10.257347 C9.83004615,10.0458104 9.81927692,9.8763652 9.79773846,9.7511701 C9.77512308,9.625975 9.73096923,9.509414 9.66096923,9.4025665 C9.5942,9.2946396 9.50589231,9.2190909 9.39604615,9.1748409 C9.28943077,9.1295116 9.1602,9.1079262 9.01373846,9.1079262 Z M12.8710615,5.271775 L12.8710615,7.2846104 L12.3519846,7.2846104 L12.3519846,6.6176226 L8.30275385,6.6176226 L8.30275385,7.2846104 L7.7826,7.2846104 L7.7826,5.271775 L8.30275385,5.271775 L8.30275385,5.9398421 L12.3519846,5.9398421 L12.3519846,5.271775 L12.8710615,5.271775 Z M12.8705231,0.1211829 L12.8705231,0.8442927 L11.4532923,1.3439939 L11.4532923,3.5478598 L12.8705231,4.047561 L12.8705231,4.7350549 L7.78313846,2.8797927 L7.78313846,1.9764451 L12.8705231,0.1211829 Z M10.8728308,1.5522927 L8.37436923,2.4459268 L10.8728308,3.3427988 L10.8728308,1.5522927 Z" id="path-1"></path>
                </g>
                <mask id="mask-2" fill="white">
                    <use xlink:href="#path-1"></use>
                </mask>
                <use id="path-1" fill="#FFFFFF" xlink:href="#path-1"></use>
                <g id="Elements-/-Color-/-Principal-/-Withe" mask="url(#mask-2)">
                    <g transform="translate(-1.000000, 144.000000)"></g>
                </g>
            </g>
            <text id="FINANCIERA" font-family="ArialMT, Arial" font-size="7.1" font-weight="normal" fill="#FFFFFF">
                <tspan x="139" y="6.2">FINANCIERA</tspan>
            </text>
        </g>
    </g>
</svg>