<svg id="Capa_1" data-name="Capa 1" xmlns="http://www.w3.org/2000/svg" viewBox="0 0 82.2 82.2"><defs><style>.cls-1{fill:#25a3ae;}</style></defs><title>Sin título-1iconos</title><path class="cls-1" d="M.35,16.22c.19-.69.4-1.37.56-2.06a11.19,11.19,0,0,1,4.4-6.65c2.44-1.82,4.81-3.73,7.21-5.59C14,.79,14.19.8,15.47,2.09c.51.51,1,1,1.55,1.64C14.35,6,11.9,8.36,9.13,10.3,5.31,13,4.6,16.64,5.11,20.83c1.06,8.75,4.66,16.55,9.29,23.89,9.28,14.72,22.93,23.39,39.46,27.91,3.54,1,7.14,1.74,10.87,1.13A15.41,15.41,0,0,0,74,68.42c1.25-1.42,1.16-2.36-.16-3.66-3.64-3.61-7.27-7.23-11-10.79-2.55-2.48-3.89-2.34-6.32.33-1.64,1.82-3.3,3.62-5.11,5.27-2.87,2.63-6.26,2.85-9.26.37-2.69-2.21-5.09-4.77-7.6-7.2-4.67-4.51-9.31-9.05-14-13.55C17,35.74,17,32,20.74,28.67c1.86-1.65,3.83-3.2,5.75-4.79,2.28-1.9,2.33-2.55.16-4.63-2.92-2.79-5.88-5.54-8.82-8.31-.42-.4-.8-.84-1.28-1.35L20,6.65c2.33,2.19,4.64,4.34,6.93,6.51,1.26,1.19,2.54,2.34,3.73,3.6,3.07,3.27,3,6.7-.24,9.77-2,1.9-4.25,3.56-6.35,5.36s-2,2.32,0,4.2q9.37,9.1,18.68,18.28c4.09,4,4.56,2.88,7.25.18,1.19-1.18,2.29-2.45,3.42-3.69,3.71-4.11,8.1-4.44,12.13-.68S73.6,58,77.55,62a6.22,6.22,0,0,1,.58,8.45A19,19,0,0,1,65.4,78.33c-.35.06-.68.2-1,.29H59.76a4.67,4.67,0,0,0-.62-.24c-2.74-.58-5.54-1-8.22-1.76C26.47,69.32,10,53.71,2.2,29.29,1.37,26.73,1,24,.35,21.4Z"/></svg>