<svg id="Capa_1" data-name="Capa 1" xmlns="http://www.w3.org/2000/svg" viewBox="0 0 82.2 82.2"><defs><style>.cls-1{fill:#25a3ae;}</style></defs><title>Sin título-1iconos</title><path class="cls-1" d="M8.61,54.87c.12-.81.24-1.62.38-2.43C10.13,45.85,14.21,41.9,20.41,40a26.27,26.27,0,0,1,13.78-1c5,1.16,10,.72,15-.14a25.25,25.25,0,0,1,16.43,2.8,13.66,13.66,0,0,1,7.61,12c.26,6.27.22,12.56.17,18.83a6.76,6.76,0,0,1-5.55,6.7,6.5,6.5,0,0,0-.85.28H39a.93.93,0,0,0-.31-.22c-4.48-1.33-6.59-4.8-5.88-9.67C33.41,65.45,36.45,63,41,63h4.34c.52-6.56,1-12.95,1.55-19.55-3.91,1.18-7.56.84-11.24.18-3.47-.63-7-1.16-10.49-.32a36.87,36.87,0,0,0-3.79,1c-5.6,1.94-8.26,5.7-8.27,11.63,0,6.85,0,13.7,0,20.54,0,.5,0,1-.07,1.67l-4.41-.2ZM48.81,75H63.07a5.36,5.36,0,0,0,0-.81Q61,59.35,58.87,44.54a1.45,1.45,0,0,0-.91-1c-1.71-.31-3.45-.46-5.17-.72-1.08-.17-1.49.12-1.58,1.33-.51,7.12-1.13,14.24-1.7,21.36C49.26,68.66,49,71.78,48.81,75ZM63.44,45.5c1.38,9.81,2.72,19.3,4.06,28.8l.54.07A7.93,7.93,0,0,0,68.86,72c.12-5.66.15-11.32.16-17A12.42,12.42,0,0,0,68.56,52,10.13,10.13,0,0,0,63.44,45.5ZM44.37,75,45,67.39c-1.55,0-3,0-4.48,0-1.68,0-3,.82-3.22,2.28-.41,2.16-.25,3.87,1.27,4.83a2.67,2.67,0,0,0,1.19.49C41.25,75.05,42.76,75,44.37,75Z"/><path class="cls-1" d="M57,18.9a16,16,0,1,1-15.91-16A16,16,0,0,1,57,18.9Zm-16,11.47A11.56,11.56,0,1,0,29.54,18.81,11.57,11.57,0,0,0,41.08,30.37Z"/><path class="cls-1" d="M24.73,78.16H20.55V56.82h4.18Z"/></svg>