<svg id="Capa_1" data-name="Capa 1" xmlns="http://www.w3.org/2000/svg" viewBox="0 0 82.2 82.2"><defs><style>.cls-1{fill:#25a3ae;}</style></defs><title>Sin título-1iconos</title><path class="cls-1" d="M36.23,73.89c-1.55-.47-2.08-1.48-2-3.1.11-3.15,0-6.31,0-9.61H28.57V57c2.73,0,5.46-.07,8.18,0,1.08,0,1.69,1.06,1.7,2.39,0,2.87,0,5.74,0,8.61v1.42H50.4c0-.42.07-.79.07-1.15,0-10.81,0-21.62,0-32.43a2.55,2.55,0,0,0-.6-1.63C44.25,28.58,38.62,23,33,17.36c-.18-.17-.37-.32-.6-.52-.27.25-.53.45-.75.68q-8.61,8.6-17.18,17.22a2.49,2.49,0,0,0-.7,1.59c0,10.73,0,21.46,0,32.18,0,.29,0,.57.06,1H29v4.38H11.52c-1.55-.49-2-1.56-2-3.14.05-9.82,0-19.63,0-29.45V40l-.3-.18L5.09,44.45,2,41.25c.13-.14.35-.42.6-.67l27.8-27.8c1.5-1.5,2.5-1.5,4,0L49.24,27.62a11.13,11.13,0,0,1,.84,1.08l.28-.17V20.64H45V16.45h3.79c1.21,0,2.41,0,3.62,0,1.55,0,2.26.74,2.27,2.32,0,4.37,0,8.73,0,13.1a2.59,2.59,0,0,0,.87,2.06c2.5,2.43,4.94,4.92,7.43,7.41l-3,2.78-4.8-5.06-.47.26v1.27c0,10.07,0,20.13,0,30.2,0,1.61-.47,2.63-2,3.1Z"/><path class="cls-1" d="M82.65,71.9l-4.07-.18A22.15,22.15,0,0,0,78,69.29,6.76,6.76,0,0,0,64.9,70.72c-.09.86-.41,1.14-1.24,1.08s-2,0-3,0a11.3,11.3,0,0,1,1.22-5.51,3.44,3.44,0,0,0,.22-2.21,6.61,6.61,0,0,0-4.64-4.63c-.2-.06-.41-.08-.61-.13s-.31-.11-.53-.19V55A11.25,11.25,0,0,1,66,62a11.1,11.1,0,0,1,8.36-1.18,11,11,0,0,1,8,8.06,7.31,7.31,0,0,0,.29.78Z"/><path class="cls-1" d="M25.65,48.07h-4V41.23h4Z"/><path class="cls-1" d="M44.84,48.1h-4V41.25h4Z"/></svg>