<svg id="Capa_1" data-name="Capa 1" xmlns="http://www.w3.org/2000/svg" viewBox="0 0 82.2 82.2"><defs><style>.cls-1{fill:#25a3ae;}</style></defs><title>Sin título-1iconos</title><path class="cls-1" d="M8.15,68c4.48-5.92,9-11.86,13.45-17.76,5.08-6.67,10.16-13.33,15.3-19.95a1.6,1.6,0,0,0,0-2.4C35.36,26,34,24,32.51,22.11c-1.27-1.7-.8-3.27,1.21-4a21.33,21.33,0,0,1,11.42-.64,1.77,1.77,0,0,0,2.1-.81c2.11-2.86,4.31-5.67,6.53-8.58a23.07,23.07,0,0,0-8.24-2.26,37.64,37.64,0,0,0-15,1.07c-.81.23-1.59.56-2.38.87a5.33,5.33,0,0,0-3.67,4.71c-.49,4.77-1.08,9.54-1.66,14.3a3.13,3.13,0,0,0,.76,2.58C24.86,30.86,26,32.46,27.16,34c.45.56.57,1,.05,1.57-.77.88-1.44,1.85-2.29,2.95-2.15-2.85-4.24-5.56-6.25-8.33a2.49,2.49,0,0,1-.33-1.62c.68-6.12,1.37-12.24,2.15-18.34C20.85,7.43,22.67,5.66,25,4.4A30.62,30.62,0,0,1,38.19,1.2a39.18,39.18,0,0,1,15.57,2c.4.14.79.32,1.18.47a9.4,9.4,0,0,1,6.33,8.25c.56,5.34,1.24,10.66,1.69,16a5.15,5.15,0,0,1-1,3.21c-2.68,3.7-5.52,7.27-8.38,11q4,5.28,8.06,10.54L72,66.23c2.21,2.9,1.11,5.68-2.46,6.26-1.57.26-3.53.12-4.59,1s-1.19,2.86-1.73,4.36c-.12.36-.21.73-.35,1.07a3.49,3.49,0,0,1-6.07,1C52.37,74.21,48,68.44,43.47,62.59l2.82-3.67,13,16.78c.63-1.89,1.24-3.56,1.72-5.27a1.64,1.64,0,0,1,1.56-1.32c1.72-.23,3.43-.55,5.37-.87L50.76,45.82,39.91,59.92c-5,6.53-10.06,13-15.06,19.6a3.65,3.65,0,0,1-3.77,1.66,3.53,3.53,0,0,1-2.82-2.82c-.34-1.22-.89-2.38-1.18-3.61a2,2,0,0,0-2-1.73c-1-.07-1.95-.39-2.93-.45a4.51,4.51,0,0,1-4-2.64Zm5.3.27c1.76.31,3.31.69,4.88.83a2.18,2.18,0,0,1,2.21,1.87c.4,1.54,1,3,1.52,4.66.31-.33.56-.54.75-.79q17.57-22.85,35.11-45.7a2.81,2.81,0,0,0,.55-1.78c-.27-3.47-.63-6.94-1-10.4-.17-1.6-.46-3.2-.75-5.22ZM40.59,25.37l2.78-3.67H37.85Z"/><path class="cls-1" d="M43,29.43,40.42,26h5.12Z"/></svg>