<?xml version="1.0" encoding="utf-8"?>
<!-- Generator: Adobe Illustrator 22.1.0, SVG Export Plug-In . SVG Version: 6.00 Build 0)  -->
<svg version="1.1" id="Capa_1" xmlns="http://www.w3.org/2000/svg" xmlns:xlink="http://www.w3.org/1999/xlink" x="0px" y="0px"
	 viewBox="0 0 80 80" style="enable-background:new 0 0 80 80;" xml:space="preserve">
<style type="text/css">
	.st0{fill:#171343;}
</style>
<g>
	<path class="st0" d="M27.9,19.5H51c1.1,0,2-0.9,2-2V8.1c0-1.1-0.9-2-2-2h-3.7C46.4,2.6,43.2,0,39.4,0c-3.8,0-6.9,2.6-7.8,6.1h-3.7
		c-1.1,0-2,0.9-2,2v9.4C25.9,18.6,26.8,19.5,27.9,19.5z M29.9,10.1h3.5c1.1,0,2-0.9,2-2c0-2.3,1.8-4.1,4.1-4.1
		c2.3,0,4.1,1.8,4.1,4.1c0,1.1,0.9,2,2,2H49v5.4H29.9V10.1z"/>
	<path class="st0" d="M36.5,50.4L36.5,50.4l-6.7-6.7L27,46.6l8.3,8.3c0.4,0.4,0.9,0.6,1.4,0.6c0.6,0,1.2-0.3,1.6-0.8L53,35.8
		l-3.1-2.4L36.5,50.4z"/>
	<path class="st0" d="M66.8,9.7L66.8,9.7l-9,0v4h7.1V76H15V13.7h6.7v-4H13c-1.1,0-2,0.9-2,2V78c0,1.1,0.9,2,2,2h53.8
		c1.1,0,2-0.9,2-2V11.7C68.8,10.6,67.9,9.7,66.8,9.7z"/>
</g>
</svg>
