<svg id="Capa_1" data-name="Capa 1" xmlns="http://www.w3.org/2000/svg" viewBox="0 0 82.2 82.2"><defs><style>.cls-1{fill:#221e44;}</style></defs><title>Sin título-1</title><path class="cls-1" d="M60.36,8.42c3.94,1.05,6.16,3.71,7.27,7.54.54,1.9,1.37,3.72,2,5.61a1.39,1.39,0,0,0,1.66,1.13c2.46-.06,4.94,0,7.4,0A4,4,0,0,1,83,26.89c.07,1.45,0,2.9,0,4.35,0,3-1,4.22-4.07,4.92,1.59,2.51,1.16,5.29,1.17,8q0,12.06,0,24.12c0,3.16-1.41,4.66-4.54,4.72-2.91,0-5.81,0-8.72,0a9,9,0,0,1-2-.22A4.42,4.42,0,0,1,61.14,68c0-.72,0-1.43,0-2.25h4.69c.37,2.44.37,2.44,2.88,2.44,1.84,0,3.68,0,5.52,0,.63,0,1.15,0,1.14-.89,0-4.64,0-9.28,0-14.15H73.43c-2.71,0-5.42,0-8.13,0A4.28,4.28,0,0,1,60.93,50c-.43-1.23-.83-2.47-1.22-3.72a4.77,4.77,0,0,1,4.68-6.47c3.52,0,7,0,11.07,0-.76-.86-1.27-1.37-1.71-1.94-2.11-2.69-4.79-3.38-8.22-3.35-16.8.19-33.6.1-50.4.07a3.7,3.7,0,0,0-2.84,1.1c-1.35,1.29-2.79,2.48-4.5,4,.86.07,1.27.13,1.67.13,3.2,0,6.39,0,9.59,0a4.77,4.77,0,0,1,4.69,6.35c-.36,1.2-.77,2.39-1.16,3.58A4.38,4.38,0,0,1,18,53.14c-3.34,0-6.68,0-10.14,0V68.05H17l.17-2.32h4.76a31.81,31.81,0,0,1,0,3.53,4,4,0,0,1-3.77,3.63c-3.77.13-7.55.16-11.31,0-2.45-.12-3.93-2.06-3.93-4.56,0-9.1-.06-18.21.05-27.31A23.23,23.23,0,0,1,4,36.14c-3.32-1.06-4-2-4-5.78,0-1.06,0-2.13,0-3.19A4.31,4.31,0,0,1,4.5,22.69c2.57,0,5.13-.05,7.7,0a1.38,1.38,0,0,0,1.61-1.21c.43-1.58,1.09-3.11,1.46-4.7,1-4.12,3.13-7.11,7.32-8.38Zm7,21.34C65.59,24.85,64,20.17,62.2,15.53a3.48,3.48,0,0,0-3.58-2.21q-16.84,0-33.68,0c-2.57,0-3.68.79-4.47,3.24-1.29,4-2.55,8-3.82,12a11.32,11.32,0,0,0-.23,1.16ZM7.76,48.25c3.27,0,6.36,0,9.44,0a1.14,1.14,0,0,0,.87-.52c.38-1,.64-2,1-3H7.76Zm67.61,0c0-1-.05-1.73,0-2.49.08-1-.34-1.26-1.26-1.23-1.45.06-2.9,0-4.35,0H64.29c.38,1.18.62,2.11,1,3a1.28,1.28,0,0,0,.89.69C69.16,48.27,72.15,48.25,75.37,48.25ZM4.93,27.59v3.57c1.61,0,3.14.08,4.66-.05a2.15,2.15,0,0,0,1.39-1,13.34,13.34,0,0,0,.81-2.5Zm67,0c.82,3.93,1.41,3.82,6.13,3.37V27.61Z"/><path class="cls-1" d="M71.3,56.83v4.69H11.72V56.83Z"/></svg>