<?xml version="1.0" encoding="utf-8"?>
<!-- Generator: Adobe Illustrator 22.1.0, SVG Export Plug-In . SVG Version: 6.00 Build 0)  -->
<svg version="1.1" id="Capa_1" xmlns="http://www.w3.org/2000/svg" xmlns:xlink="http://www.w3.org/1999/xlink" x="0px" y="0px"
	 viewBox="0 0 80 80" style="enable-background:new 0 0 80 80;" xml:space="preserve">
<style type="text/css">
	.st0{fill:#171343;}
</style>
<g>
	<g>
		<path id="a_1_" class="st0" d="M58.6,53.3c-0.4,0.4-0.9,0.7-1.5,0.7c-0.5,0-1-0.2-1.3-0.5l-5.9-5.4l2.7-3l4.4,4l11.9-13.8l3,2.6
			C71.9,38,58.6,53.3,58.6,53.3z M75.2,31.1c2-7.4-0.1-15.4-5.5-20.8c-4-4-9.4-6.3-15.1-6.3C49,4,43.5,6.2,39.5,10.2L38,11.6
			l-1.5-1.4c-8.3-8.3-21.9-8.3-30.2,0c-8.3,8.3-8.3,21.9-0.1,30.2l30.3,34.9c0.7,0.8,2,0.9,2.8,0.2c0.1-0.1,0.1-0.1,0.2-0.2l8-9.2
			l-3-2.6L38,71L9.2,37.8c0,0-0.1-0.1-0.1-0.1c-6.8-6.8-6.8-17.8,0-24.6c6.8-6.8,17.8-6.8,24.6,0c0,0,0.1,0.1,0.1,0.1l2.9,2.6
			c0.8,0.7,1.9,0.7,2.6,0l2.9-2.6c0,0,0.1-0.1,0.1-0.1C45.6,9.8,50,8,54.6,8c4.6,0,9,1.8,12.3,5.1c3.9,3.9,5.7,9.4,4.9,14.8
			C68.5,25.5,64.4,24,60,24c-11,0-20,9-20,20c0,11,9,20,20,20c11,0,20-9,20-20C80,39.1,78.2,34.6,75.2,31.1L75.2,31.1z"/>
	</g>
</g>
</svg>
